<svg width="130" height="37" viewBox="0 0 130 37" fill="none" xmlns="http://www.w3.org/2000/svg">
<path fill-rule="evenodd" clip-rule="evenodd" d="M105.659 6.43848C101.227 6.43848 98.7234 7.29412 97.2858 9.29936C95.7839 11.3938 95.4822 14.7001 95.4822 19.3567C95.4822 28.4972 96.8963 32.3184 105.659 32.3184C106.712 32.3184 110.31 32.2984 112.41 32.042C113.227 31.9065 113.593 31.2808 113.593 30.7207V29.7112C113.593 28.9253 113 28.3328 112.212 28.3328H105.659C100.715 28.3328 99.8231 27.1672 99.6965 20.5414V18.3966C99.7385 11.6161 100.63 10.4241 105.659 10.4241C110.297 10.4241 111.186 11.482 111.34 17.4515H103.972V21.4812H113.663C115.572 21.4812 115.572 20.1463 115.572 19.7077V18.4213C115.434 9.12601 113.21 6.43848 105.659 6.43848Z" fill="white"/>
<path fill-rule="evenodd" clip-rule="evenodd" d="M92.8976 6.79382L92.7924 6.76597C91.8898 6.57613 89.423 6.43848 88.2003 6.43848C83.8726 6.43848 81.5852 8.25036 81.5852 11.6783V30.7642C81.5852 31.5501 82.1352 32.0988 82.9229 32.0988H84.4622C85.2499 32.0988 85.7998 31.5501 85.7998 30.7642V12.0288C85.7998 11.1829 86.014 10.4241 88.5963 10.4241L92.42 10.4206C92.7943 10.4655 93.1516 10.3619 93.4264 10.129C93.7267 9.87565 93.8918 9.50624 93.8918 9.08951V8.12407C93.8918 7.49018 93.5294 7.0053 92.8976 6.79382Z" fill="white"/>
<path fill-rule="evenodd" clip-rule="evenodd" d="M74.4154 6.74585H72.8761C72.0884 6.74585 71.5385 7.29455 71.5385 8.08015V28.333H65.1362C61.1759 28.333 59.5694 28.0812 59.5694 21.7696V8.08015C59.5694 7.29455 59.0191 6.74585 58.2317 6.74585H56.736C55.9484 6.74585 55.3548 7.31943 55.3548 8.08015V21.7696C55.3548 30.7398 58.6082 32.3183 65.4439 32.3183C67.9031 32.3183 71.271 32.3183 74.4829 31.8661L74.5569 31.8513C75.3503 31.653 75.7528 31.1987 75.7528 30.5013V8.08015C75.7528 7.29455 75.2026 6.74585 74.4154 6.74585Z" fill="white"/>
<path fill-rule="evenodd" clip-rule="evenodd" d="M50.6064 7.3726C50.4088 6.95262 49.9852 6.70166 49.4729 6.70166H47.4942C46.9196 6.70166 46.4897 6.93315 46.2633 7.34988L43.3308 11.6349L45.8982 15.1461L50.3806 8.7161C50.8726 8.11845 50.7024 7.57731 50.6064 7.3726Z" fill="#74BB11"/>
<path fill-rule="evenodd" clip-rule="evenodd" d="M35.1457 7.30148L35.143 7.29742C34.6961 6.70166 34.1011 6.70166 33.9054 6.70166H31.9701C31.4743 6.70166 31.0683 6.92936 30.8561 7.32608C30.6379 7.73227 30.6839 8.22067 30.9859 8.67283L38.1558 18.6122L29.9112 30.1117C29.623 30.5442 29.5827 31.025 29.8003 31.4309C30.0136 31.8276 30.4199 32.0548 30.9149 32.0548H32.8936C33.4023 32.0548 33.8496 31.7909 34.0734 31.3747L43.3017 18.6579L35.1457 7.30148Z" fill="#009CD9"/>
<path fill-rule="evenodd" clip-rule="evenodd" d="M51.5907 30.2123L45.8385 22.3179L43.3082 25.8062L47.8575 31.8776L47.9757 31.9292C48.172 32.0139 48.3595 32.0547 48.5495 32.0547H50.4843C50.9516 32.0547 51.3484 31.847 51.5731 31.4844C51.8032 31.1128 51.8097 30.6493 51.5907 30.2123Z" fill="#EB2084"/>
<path fill-rule="evenodd" clip-rule="evenodd" d="M22.3013 21.3051V28.0094C20.3421 28.3098 17.3562 28.3766 16.3387 28.3766C11.8365 28.3766 11.3434 27.1464 11.3434 24.5341C11.3434 22.0896 12.2582 21.3051 15.1073 21.3051H22.3013ZM16.1188 6.43848C14.7278 6.43848 12.8307 6.47444 10.4706 6.75867L10.3639 6.78192C9.67619 6.97772 9.32789 7.42933 9.32789 8.12407V9.08951C9.32789 9.91243 9.84045 10.4241 10.6655 10.4241H16.1188C20.5101 10.4241 22.3013 11.6134 22.3013 14.53V17.3639H15.1073C9.48456 17.3639 7.08521 19.5081 7.08521 24.5341C7.08521 30.1358 9.56858 32.3184 15.9429 32.3184C18.5247 32.3184 23.2776 32.1177 25.0343 31.582C26.5156 31.171 26.5156 30.0395 26.5156 29.6676V14.2672C26.5156 8.99918 23.1147 6.43848 16.1188 6.43848Z" fill="white"/>
</svg>
