<svg width="725" height="53" viewBox="0 0 725 53" fill="none" xmlns="http://www.w3.org/2000/svg">
<rect x="0.5" y="0.5" width="723.058" height="51.6681" rx="25.834" stroke="#FFFFF1"/>
<path d="M57.9951 30.8802C59.5641 30.8802 60.7194 30.4962 61.4609 29.7282C62.2024 28.9602 62.5731 27.7586 62.5731 26.1234C62.5731 24.6205 62.166 23.452 61.3516 22.6178C60.5439 21.7836 59.4118 21.3665 57.9553 21.3665H56.1082V30.8802H57.9951ZM58.1738 33.3629H53.2581V18.9037H58.0944C59.4052 18.9037 60.4546 19.0361 61.2424 19.3009C62.0303 19.5657 62.7453 20.0093 63.3875 20.6316C64.0694 21.2937 64.5858 22.0948 64.9367 23.0349C65.2875 23.975 65.463 25.031 65.463 26.2028C65.463 27.5137 65.218 28.6888 64.7281 29.7282C64.2382 30.761 63.5265 31.6118 62.593 32.2804C62.0634 32.671 61.4708 32.9491 60.8154 33.1146C60.16 33.2801 59.2794 33.3629 58.1738 33.3629ZM74.5997 33.3629H66.7941V18.9037H74.5997V21.446H69.5946V24.743H74.5997V27.2455H69.5946V30.8206H74.5997V33.3629ZM79.3867 25.3686H80.1315C80.9194 25.3686 81.5218 25.1998 81.9389 24.8622C82.3626 24.5179 82.5745 24.028 82.5745 23.3924C82.5745 22.737 82.3692 22.2504 81.9588 21.9326C81.5549 21.6082 80.9392 21.446 80.1117 21.446H79.3867V25.3686ZM79.3867 33.3629H76.5564V18.9037H80.1514C81.065 18.9037 81.7833 18.9534 82.3063 19.0527C82.836 19.152 83.263 19.3109 83.5874 19.5293C84.1833 19.9332 84.65 20.4661 84.9877 21.1282C85.3319 21.7902 85.5041 22.4986 85.5041 23.2534C85.5041 24.6371 85.0472 25.7427 84.1336 26.5702C83.22 27.3978 81.9886 27.8116 80.4394 27.8116H79.3867V33.3629ZM92.307 27.6527L90.5989 22.9952L88.8511 27.6527H92.307ZM87.8779 30.334L86.7557 33.3629H83.8262L89.437 18.9037H91.88L97.4114 33.3629H94.3826L93.2405 30.334H87.8779ZM100.461 25.9347H101.086C102.232 25.9347 103.099 25.7294 103.688 25.319C104.284 24.9019 104.582 24.2961 104.582 23.5016C104.582 22.7337 104.334 22.1676 103.837 21.8035C103.34 21.4394 102.566 21.2573 101.513 21.2573H100.461V25.9347ZM100.461 33.3629H97.6303V18.9037H101.066C102.159 18.9037 102.97 18.9434 103.499 19.0229C104.036 19.0957 104.492 19.2182 104.87 19.3903C105.691 19.7743 106.316 20.3106 106.747 20.9991C107.177 21.6876 107.392 22.4953 107.392 23.4222C107.392 24.5411 107.084 25.4911 106.469 26.2723C105.853 27.0469 105.015 27.5401 103.956 27.752L107.571 33.3629H104.195L100.461 26.6497V33.3629ZM116.003 18.9037V21.446H113.272V33.3629H110.451V21.446H107.72V18.9037H116.003ZM119.717 33.3629H116.917V18.9037H120.661L124.335 29.4204L127.999 18.9037H131.743V33.3629H128.953L129.052 22.8661L125.398 33.3629H123.262L119.598 22.8661L119.717 33.3629ZM141.555 33.3629H133.75V18.9037H141.555V21.446H136.55V24.743H141.555V27.2455H136.55V30.8206H141.555V33.3629ZM146.293 33.3629H143.512V18.9037H146.193L152.172 28.1393V18.9037H154.942V33.3629H152.321L146.293 23.8492V33.3629ZM164.168 18.9037V21.446H161.437V33.3629H158.617V21.446H155.886V18.9037H164.168ZM172.928 26.0042C172.928 26.6265 173.031 27.2058 173.236 27.7421C173.441 28.2783 173.746 28.7683 174.15 29.2118C174.593 29.6951 175.096 30.0692 175.659 30.334C176.222 30.5922 176.804 30.7213 177.407 30.7213C178.671 30.7213 179.731 30.2711 180.585 29.3707C181.445 28.4703 181.876 27.3482 181.876 26.0042C181.876 24.7728 181.442 23.7234 180.575 22.8561C179.714 21.9822 178.678 21.5453 177.466 21.5453C176.202 21.5453 175.129 21.9789 174.249 22.8462C173.368 23.7135 172.928 24.7662 172.928 26.0042ZM169.959 26.1035C169.959 25.309 170.065 24.5609 170.277 23.8591C170.488 23.1508 170.803 22.4887 171.22 21.873C171.935 20.8336 172.832 20.0325 173.911 19.4698C174.99 18.9004 176.169 18.6157 177.447 18.6157C178.407 18.6157 179.33 18.8011 180.217 19.1718C181.111 19.5426 181.909 20.0755 182.611 20.7707C183.332 21.4923 183.882 22.3033 184.259 23.2037C184.636 24.1041 184.825 25.0508 184.825 26.0439C184.825 27.0767 184.646 28.0466 184.289 28.9536C183.938 29.8606 183.418 30.665 182.73 31.3668C182.035 32.1017 181.224 32.6677 180.297 33.065C179.376 33.4556 178.413 33.6509 177.407 33.6509C176.328 33.6509 175.335 33.4589 174.428 33.0749C173.521 32.6909 172.716 32.1215 172.014 31.3668C171.339 30.6518 170.826 29.8507 170.475 28.9636C170.131 28.0698 169.959 27.1164 169.959 26.1035ZM186.196 33.3629V18.9037H194.002V21.446H188.996V24.743H194.002V27.2455H188.996V33.3629H186.196ZM214.678 23.1938H211.222C210.812 22.6377 210.322 22.2206 209.753 21.9425C209.19 21.6644 208.548 21.5254 207.826 21.5254C207.243 21.5254 206.691 21.6347 206.168 21.8531C205.645 22.0716 205.181 22.3894 204.777 22.8065C204.347 23.2434 204.013 23.7499 203.774 24.3259C203.543 24.8953 203.427 25.4812 203.427 26.0836C203.427 27.4077 203.85 28.52 204.698 29.4204C205.552 30.3141 206.595 30.761 207.826 30.761C208.534 30.761 209.17 30.6286 209.733 30.3638C210.302 30.099 210.762 29.715 211.113 29.2118L214.579 29.2118C213.904 30.6882 213.003 31.7971 211.878 32.5386C210.752 33.2801 209.408 33.6509 207.846 33.6509C206.76 33.6509 205.757 33.4423 204.837 33.0252C203.923 32.6081 203.102 31.9891 202.374 31.1682C201.758 30.4863 201.292 29.7117 200.974 28.8444C200.656 27.9705 200.497 27.037 200.497 26.0439C200.497 25.0376 200.689 24.0842 201.073 23.1839C201.457 22.2768 202.02 21.4526 202.761 20.7111C203.463 20.0226 204.241 19.5029 205.095 19.152C205.956 18.7945 206.879 18.6157 207.866 18.6157C209.448 18.6157 210.799 18.9931 211.917 19.7478C213.043 20.5025 213.963 21.6512 214.678 23.1938ZM218.313 26.0042C218.313 26.6265 218.416 27.2058 218.621 27.7421C218.826 28.2783 219.131 28.7683 219.535 29.2118C219.978 29.6951 220.481 30.0692 221.044 30.334C221.607 30.5922 222.19 30.7213 222.792 30.7213C224.057 30.7213 225.116 30.2711 225.97 29.3707C226.831 28.4703 227.261 27.3482 227.261 26.0042C227.261 24.7728 226.827 23.7234 225.96 22.8561C225.099 21.9822 224.063 21.5453 222.852 21.5453C221.587 21.5453 220.515 21.9789 219.634 22.8462C218.754 23.7135 218.313 24.7662 218.313 26.0042ZM215.344 26.1035C215.344 25.309 215.45 24.5609 215.662 23.8591C215.874 23.1508 216.188 22.4887 216.605 21.873C217.32 20.8336 218.217 20.0325 219.296 19.4698C220.376 18.9004 221.554 18.6157 222.832 18.6157C223.792 18.6157 224.715 18.8011 225.602 19.1718C226.496 19.5426 227.294 20.0755 227.996 20.7707C228.717 21.4923 229.267 22.3033 229.644 23.2037C230.022 24.1041 230.21 25.0508 230.21 26.0439C230.21 27.0767 230.032 28.0466 229.674 28.9536C229.323 29.8606 228.803 30.665 228.115 31.3668C227.42 32.1017 226.609 32.6677 225.682 33.065C224.762 33.4556 223.798 33.6509 222.792 33.6509C221.713 33.6509 220.72 33.4589 219.813 33.0749C218.906 32.6909 218.101 32.1215 217.4 31.3668C216.724 30.6518 216.211 29.8507 215.86 28.9636C215.516 28.0698 215.344 27.1164 215.344 26.1035ZM234.382 33.3629H231.581V18.9037H235.325L238.999 29.4204L242.664 18.9037H246.408V33.3629L243.617 33.3629L243.717 22.8661L240.062 33.3629H237.927L234.262 22.8661L234.382 33.3629ZM251.244 25.3686H251.989C252.777 25.3686 253.38 25.1998 253.797 24.8622C254.22 24.5179 254.432 24.028 254.432 23.3924C254.432 22.737 254.227 22.2504 253.817 21.9326C253.413 21.6082 252.797 21.446 251.969 21.446H251.244V25.3686ZM251.244 33.3629H248.414V18.9037H252.009C252.923 18.9037 253.641 18.9534 254.164 19.0527C254.694 19.152 255.121 19.3109 255.445 19.5293C256.041 19.9332 256.508 20.4661 256.845 21.1282C257.19 21.7902 257.362 22.4986 257.362 23.2534C257.362 24.6371 256.905 25.7427 255.991 26.5702C255.078 27.3978 253.846 27.8116 252.297 27.8116H251.244V33.3629ZM258.474 18.9037H261.305V27.2455C261.305 28.5498 261.44 29.4568 261.712 29.9666C261.99 30.4697 262.463 30.7213 263.132 30.7213C263.801 30.7213 264.271 30.4697 264.542 29.9666C264.82 29.4568 264.959 28.5498 264.959 27.2455V18.9037H267.79V28.0797C267.79 29.0993 267.733 29.8639 267.621 30.3737C267.508 30.8835 267.319 31.3304 267.055 31.7144C266.604 32.3764 266.062 32.8663 265.426 33.1841C264.79 33.4953 264.026 33.6509 263.132 33.6509C262.238 33.6509 261.474 33.4953 260.838 33.1841C260.202 32.8663 259.66 32.3764 259.209 31.7144C258.945 31.3304 258.756 30.9001 258.643 30.4234C258.531 29.9467 258.474 29.1655 258.474 28.0797V18.9037ZM276.986 18.9037V21.446H274.255V33.3629H271.435V21.446H268.704V18.9037H276.986ZM285.705 33.3629H277.9V18.9037H285.705V21.446H280.7V24.743H285.705V27.2455H280.7V30.8206H285.705V33.3629ZM290.492 25.9347H291.118C292.263 25.9347 293.131 25.7294 293.72 25.319C294.316 24.9019 294.614 24.2961 294.614 23.5016C294.614 22.7337 294.365 22.1676 293.869 21.8035C293.372 21.4394 292.598 21.2573 291.545 21.2573H290.492V25.9347ZM290.492 33.3629H287.662V18.9037H291.098C292.191 18.9037 293.002 18.9434 293.531 19.0229C294.068 19.0957 294.524 19.2182 294.902 19.3903C295.723 19.7743 296.348 20.3106 296.779 20.9991C297.209 21.6876 297.424 22.4953 297.424 23.4222C297.424 24.5411 297.116 25.4911 296.501 26.2723C295.885 27.0469 295.047 27.5401 293.988 27.752L297.603 33.3629H294.226L290.492 26.6497V33.3629ZM303.473 28.8742L306.055 28.8642V29.0728C306.055 29.6819 306.214 30.1718 306.531 30.5425C306.849 30.9067 307.273 31.0887 307.803 31.0887C308.372 31.0887 308.822 30.9199 309.153 30.5823C309.484 30.238 309.65 29.7746 309.65 29.192C309.65 28.2585 308.981 27.5898 307.644 27.186C307.472 27.133 307.336 27.09 307.236 27.0569C306.111 26.706 305.277 26.2094 304.734 25.5672C304.191 24.9184 303.92 24.1008 303.92 23.1143C303.92 21.7571 304.294 20.6681 305.042 19.8471C305.797 19.0262 306.8 18.6157 308.051 18.6157C309.223 18.6157 310.156 18.9831 310.851 19.718C311.546 20.4463 311.934 21.4691 312.013 22.7866H309.451V22.6675C309.451 22.204 309.312 21.83 309.034 21.5453C308.756 21.2606 308.392 21.1183 307.942 21.1183C307.478 21.1183 307.111 21.2639 306.839 21.5552C306.574 21.8465 306.442 22.2437 306.442 22.7469C306.442 22.9588 306.469 23.1474 306.521 23.313C306.581 23.4718 306.67 23.6175 306.79 23.7499C307.061 24.0478 307.644 24.3226 308.537 24.5742C308.935 24.6801 309.239 24.7695 309.451 24.8423C310.444 25.1799 311.176 25.6632 311.646 26.2922C312.122 26.9211 312.361 27.7255 312.361 28.7054C312.361 30.195 311.947 31.3933 311.119 32.3003C310.292 33.2007 309.193 33.6509 307.822 33.6509C306.531 33.6509 305.489 33.2139 304.694 32.34C303.9 31.4661 303.493 30.3108 303.473 28.8742ZM327.277 23.1938H323.821C323.411 22.6377 322.921 22.2206 322.352 21.9425C321.789 21.6644 321.147 21.5254 320.425 21.5254C319.842 21.5254 319.29 21.6347 318.767 21.8531C318.243 22.0716 317.78 22.3894 317.376 22.8065C316.946 23.2434 316.612 23.7499 316.373 24.3259C316.141 24.8953 316.026 25.4812 316.026 26.0836C316.026 27.4077 316.449 28.52 317.297 29.4204C318.151 30.3141 319.194 30.761 320.425 30.761C321.133 30.761 321.769 30.6286 322.332 30.3638C322.901 30.099 323.361 29.715 323.712 29.2118H327.178C326.503 30.6882 325.602 31.7971 324.477 32.5386C323.351 33.2801 322.007 33.6509 320.445 33.6509C319.359 33.6509 318.356 33.4423 317.436 33.0252C316.522 32.6081 315.701 31.9891 314.973 31.1682C314.357 30.4863 313.891 29.7117 313.573 28.8444C313.255 27.9705 313.096 27.037 313.096 26.0439C313.096 25.0376 313.288 24.0842 313.672 23.1839C314.056 22.2768 314.619 21.4526 315.36 20.7111C316.062 20.0226 316.84 19.5029 317.694 19.152C318.555 18.7945 319.478 18.6157 320.465 18.6157C322.047 18.6157 323.398 18.9931 324.516 19.7478C325.642 20.5025 326.562 21.6512 327.277 23.1938ZM328.598 33.3629V18.9037H331.429V33.3629H328.598ZM341.241 33.3629H333.435V18.9037H341.241V21.446H336.235V24.743H341.241V27.2455H336.235V30.8206H341.241V33.3629ZM345.978 33.3629H343.197V18.9037H345.879L351.857 28.1393V18.9037H354.628V33.3629H352.006L345.978 23.8492V33.3629ZM370.239 23.1938H366.783C366.373 22.6377 365.883 22.2206 365.314 21.9425C364.751 21.6644 364.109 21.5254 363.387 21.5254C362.804 21.5254 362.252 21.6347 361.729 21.8531C361.206 22.0716 360.742 22.3894 360.338 22.8065C359.908 23.2434 359.574 23.7499 359.335 24.3259C359.104 24.8953 358.988 25.4812 358.988 26.0836C358.988 27.4077 359.411 28.52 360.259 29.4204C361.113 30.3141 362.156 30.761 363.387 30.761C364.095 30.761 364.731 30.6286 365.294 30.3638C365.863 30.099 366.323 29.715 366.674 29.2118H370.14C369.465 30.6882 368.564 31.7971 367.439 32.5386C366.313 33.2801 364.969 33.6509 363.407 33.6509C362.321 33.6509 361.318 33.4423 360.398 33.0252C359.484 32.6081 358.663 31.9891 357.935 31.1682C357.319 30.4863 356.853 29.7117 356.535 28.8444C356.217 27.9705 356.058 27.037 356.058 26.0439C356.058 25.0376 356.25 24.0842 356.634 23.1839C357.018 22.2768 357.581 21.4526 358.322 20.7111C359.024 20.0226 359.802 19.5029 360.656 19.152C361.517 18.7945 362.44 18.6157 363.427 18.6157C365.009 18.6157 366.36 18.9931 367.478 19.7478C368.604 20.5025 369.524 21.6512 370.239 23.1938ZM379.346 33.3629L371.541 33.3629V18.9037H379.346V21.446H374.341V24.743H379.346V27.2455H374.341V30.8206H379.346V33.3629ZM393.339 27.6527L391.631 22.9952L389.883 27.6527H393.339ZM388.91 30.334L387.788 33.3629H384.858L390.469 18.9037H392.912L398.444 33.3629H395.415L394.273 30.334H388.91ZM401.443 33.3629H398.663V18.9037H401.344L407.322 28.1393V18.9037H410.093V33.3629H407.471L401.443 23.8492V33.3629ZM416.856 30.8802C418.425 30.8802 419.581 30.4962 420.322 29.7282C421.064 28.9602 421.434 27.7586 421.434 26.1234C421.434 24.6205 421.027 23.452 420.213 22.6178C419.405 21.7836 418.273 21.3665 416.816 21.3665H414.969V30.8802H416.856ZM417.035 33.3629H412.119V18.9037H416.956C418.266 18.9037 419.316 19.0361 420.104 19.3009C420.891 19.5657 421.606 20.0093 422.249 20.6316C422.931 21.2937 423.447 22.0948 423.798 23.0349C424.149 23.975 424.324 25.031 424.324 26.2028C424.324 27.5137 424.079 28.6888 423.589 29.7282C423.099 30.761 422.388 31.6118 421.454 32.2804C420.924 32.671 420.332 32.9491 419.677 33.1146C419.021 33.2801 418.141 33.3629 417.035 33.3629ZM438.973 33.3629H431.167V18.9037H438.973V21.446H433.968V24.743H438.973V27.2455H433.968V30.8206H438.973V33.3629ZM443.71 33.3629H440.93V18.9037H443.611L449.589 28.1393V18.9037H452.36V33.3629H449.738L443.71 23.8492V33.3629ZM468.617 25.6765C468.617 25.7294 468.62 25.8122 468.627 25.9247C468.633 26.0307 468.637 26.1101 468.637 26.1631C468.637 26.7854 468.58 27.3647 468.468 27.901C468.355 28.4306 468.183 28.9305 467.952 29.4005C467.27 30.7577 466.339 31.8071 465.161 32.5486C463.989 33.2834 462.662 33.6509 461.179 33.6509C460.086 33.6509 459.077 33.4423 458.15 33.0252C457.223 32.6081 456.389 31.9891 455.647 31.1682C455.032 30.4797 454.562 29.6984 454.237 28.8245C453.913 27.9506 453.751 27.0237 453.751 26.0439C453.751 25.0376 453.946 24.0842 454.336 23.1839C454.727 22.2768 455.3 21.4526 456.054 20.7111C456.77 20.0027 457.564 19.4764 458.438 19.1321C459.318 18.7878 460.292 18.6157 461.358 18.6157C462.913 18.6157 464.257 18.9964 465.389 19.7577C466.522 20.5191 467.395 21.6313 468.011 23.0945H464.575C464.158 22.5715 463.665 22.1808 463.095 21.9226C462.533 21.6578 461.9 21.5254 461.199 21.5254C459.961 21.5254 458.911 21.9723 458.051 22.8661C457.19 23.7598 456.76 24.8456 456.76 26.1234C456.76 27.421 457.193 28.5167 458.061 29.4104C458.934 30.2976 460.007 30.7412 461.278 30.7412C462.159 30.7412 462.956 30.5028 463.671 30.0261C464.393 29.5495 464.926 28.9073 465.27 28.0996H459.59V25.6765L468.617 25.6765ZM470.008 33.3629V18.9037H472.838V33.3629H470.008ZM477.625 33.3629H474.844V18.9037H477.526L483.504 28.1393V18.9037H486.275V33.3629H483.653L477.625 23.8492V33.3629ZM496.106 33.3629H488.301V18.9037L496.106 18.9037V21.446H491.101V24.743H496.106V27.2455H491.101V30.8206H496.106V33.3629ZM505.869 33.3629H498.063V18.9037H505.869V21.446H500.864V24.743H505.869V27.2455H500.864V30.8206H505.869V33.3629ZM510.656 25.9347H511.281C512.427 25.9347 513.294 25.7294 513.883 25.319C514.479 24.9019 514.777 24.2961 514.777 23.5016C514.777 22.7337 514.529 22.1676 514.032 21.8035C513.536 21.4394 512.761 21.2573 511.708 21.2573H510.656V25.9347ZM510.656 33.3629H507.826V18.9037H511.262C512.354 18.9037 513.165 18.9434 513.695 19.0229C514.231 19.0957 514.688 19.2182 515.065 19.3903C515.886 19.7743 516.512 20.3106 516.942 20.9991C517.372 21.6876 517.587 22.4953 517.587 23.4222C517.587 24.5411 517.28 25.4911 516.664 26.2723C516.048 27.0469 515.211 27.5401 514.151 27.752L517.766 33.3629H514.39L510.656 26.6497V33.3629ZM519.018 33.3629V18.9037H521.848V33.3629H519.018ZM526.635 33.3629H523.855V18.9037H526.536L532.514 28.1393V18.9037H535.285V33.3629H532.663L526.635 23.8492V33.3629ZM551.542 25.6765C551.542 25.7294 551.545 25.8122 551.552 25.9247C551.558 26.0307 551.562 26.1101 551.562 26.1631C551.562 26.7854 551.506 27.3647 551.393 27.901C551.28 28.4306 551.108 28.9305 550.877 29.4005C550.195 30.7577 549.264 31.8071 548.086 32.5486C546.914 33.2834 545.587 33.6509 544.104 33.6509C543.011 33.6509 542.002 33.4423 541.075 33.0252C540.148 32.6081 539.314 31.9891 538.572 31.1682C537.957 30.4797 537.487 29.6984 537.162 28.8245C536.838 27.9506 536.676 27.0237 536.676 26.0439C536.676 25.0376 536.871 24.0842 537.261 23.1839C537.652 22.2768 538.225 21.4526 538.98 20.7111C539.695 20.0027 540.489 19.4764 541.363 19.1321C542.243 18.7878 543.217 18.6157 544.283 18.6157C545.838 18.6157 547.182 18.9964 548.314 19.7577C549.447 20.5191 550.32 21.6313 550.936 23.0945H547.5C547.083 22.5715 546.59 22.1808 546.02 21.9226C545.458 21.6578 544.825 21.5254 544.124 21.5254C542.886 21.5254 541.836 21.9723 540.976 22.8661C540.115 23.7598 539.685 24.8456 539.685 26.1234C539.685 27.421 540.118 28.5167 540.986 29.4104C541.859 30.2976 542.932 30.7412 544.203 30.7412C545.084 30.7412 545.881 30.5028 546.596 30.0261C547.318 29.5495 547.851 28.9073 548.195 28.0996H542.515V25.6765H551.542ZM555.942 30.6419V33.2239C555.942 34.1573 555.736 34.8426 555.326 35.2795C554.922 35.7165 554.28 35.9449 553.399 35.9647V34.5049C553.704 34.4652 553.919 34.3659 554.045 34.207C554.171 34.0547 554.234 33.8065 554.234 33.4622V33.3629H553.399V30.6419H555.942ZM563.063 28.8742L565.645 28.8642V29.0728C565.645 29.6819 565.804 30.1718 566.121 30.5425C566.439 30.9067 566.863 31.0887 567.393 31.0887C567.962 31.0887 568.412 30.9199 568.743 30.5823C569.074 30.238 569.24 29.7746 569.24 29.192C569.24 28.2585 568.571 27.5898 567.234 27.186C567.062 27.133 566.926 27.09 566.827 27.0569C565.701 26.706 564.867 26.2094 564.324 25.5672C563.781 24.9184 563.51 24.1008 563.51 23.1143C563.51 21.7571 563.884 20.6681 564.632 19.8471C565.387 19.0262 566.39 18.6157 567.641 18.6157C568.813 18.6157 569.746 18.9831 570.441 19.718C571.137 20.4463 571.524 21.4691 571.603 22.7866H569.041V22.6675C569.041 22.204 568.902 21.83 568.624 21.5453C568.346 21.2606 567.982 21.1183 567.532 21.1183C567.068 21.1183 566.701 21.2639 566.429 21.5552C566.165 21.8465 566.032 22.2437 566.032 22.7469C566.032 22.9588 566.059 23.1474 566.112 23.313C566.171 23.4718 566.261 23.6175 566.38 23.7499C566.651 24.0478 567.234 24.3226 568.128 24.5742C568.525 24.6801 568.829 24.7695 569.041 24.8423C570.034 25.1799 570.766 25.6632 571.236 26.2922C571.713 26.9211 571.951 27.7255 571.951 28.7054C571.951 30.195 571.537 31.3933 570.71 32.3003C569.882 33.2007 568.783 33.6509 567.412 33.6509C566.121 33.6509 565.079 33.2139 564.284 32.34C563.49 31.4661 563.083 30.3108 563.063 28.8742ZM586.867 23.1938H583.411C583.001 22.6377 582.511 22.2206 581.942 21.9425C581.379 21.6644 580.737 21.5254 580.015 21.5254C579.432 21.5254 578.88 21.6347 578.357 21.8531C577.834 22.0716 577.37 22.3894 576.966 22.8065C576.536 23.2434 576.202 23.7499 575.963 24.3259C575.732 24.8953 575.616 25.4812 575.616 26.0836C575.616 27.4077 576.039 28.52 576.887 29.4204C577.741 30.3141 578.784 30.761 580.015 30.761C580.723 30.761 581.359 30.6286 581.922 30.3638C582.491 30.099 582.951 29.715 583.302 29.2118H586.768C586.093 30.6882 585.192 31.7971 584.067 32.5386C582.941 33.2801 581.597 33.6509 580.035 33.6509C578.949 33.6509 577.946 33.4423 577.026 33.0252C576.112 32.6081 575.291 31.9891 574.563 31.1682C573.947 30.4863 573.481 29.7117 573.163 28.8444C572.845 27.9705 572.686 27.037 572.686 26.0439C572.686 25.0376 572.878 24.0842 573.262 23.1839C573.646 22.2768 574.209 21.4526 574.95 20.7111C575.652 20.0226 576.43 19.5029 577.284 19.152C578.145 18.7945 579.068 18.6157 580.055 18.6157C581.637 18.6157 582.988 18.9931 584.106 19.7478C585.232 20.5025 586.152 21.6512 586.867 23.1938ZM587.295 28.8742L589.877 28.8642V29.0728C589.877 29.6819 590.036 30.1718 590.353 30.5425C590.671 30.9067 591.095 31.0887 591.624 31.0887C592.194 31.0887 592.644 30.9199 592.975 30.5823C593.306 30.238 593.472 29.7746 593.472 29.192C593.472 28.2585 592.803 27.5898 591.466 27.186C591.293 27.133 591.158 27.09 591.058 27.0569C589.933 26.706 589.099 26.2094 588.556 25.5672C588.013 24.9184 587.742 24.1008 587.742 23.1143C587.742 21.7571 588.116 20.6681 588.864 19.8471C589.618 19.0262 590.621 18.6157 591.873 18.6157C593.045 18.6157 593.978 18.9831 594.673 19.718C595.368 20.4463 595.756 21.4691 595.835 22.7866H593.273V22.6675C593.273 22.204 593.134 21.83 592.856 21.5453C592.578 21.2606 592.214 21.1183 591.763 21.1183C591.3 21.1183 590.933 21.2639 590.661 21.5552C590.396 21.8465 590.264 22.2437 590.264 22.7469C590.264 22.9588 590.29 23.1474 590.343 23.313C590.403 23.4718 590.492 23.6175 590.612 23.7499C590.883 24.0478 591.466 24.3226 592.359 24.5742C592.757 24.6801 593.061 24.7695 593.273 24.8423C594.266 25.1799 594.998 25.6632 595.468 26.2922C595.944 26.9211 596.183 27.7255 596.183 28.7054C596.183 30.195 595.769 31.3933 594.941 32.3003C594.114 33.2007 593.015 33.6509 591.644 33.6509C590.353 33.6509 589.311 33.2139 588.516 32.34C587.722 31.4661 587.314 30.3108 587.295 28.8742ZM605.319 33.3629H597.514V18.9037H605.319V21.446H600.314V24.743H605.319V27.2455H600.314V30.8206H605.319V33.3629ZM610.305 30.6419V33.2239C610.305 34.1573 610.1 34.8426 609.689 35.2795C609.285 35.7165 608.643 35.9449 607.763 35.9647V34.5049C608.067 34.4652 608.282 34.3659 608.408 34.207C608.534 34.0547 608.597 33.8065 608.597 33.4622V33.3629H607.763V30.6419H610.305ZM618.3 33.3629V18.9037H626.106V21.446H621.101V24.743H626.106V27.2455H621.101V33.3629H618.3ZM630.019 26.0042C630.019 26.6265 630.121 27.2058 630.327 27.7421C630.532 28.2783 630.836 28.7683 631.24 29.2118C631.684 29.6951 632.187 30.0692 632.75 30.334C633.312 30.5922 633.895 30.7213 634.498 30.7213C635.762 30.7213 636.821 30.2711 637.675 29.3707C638.536 28.4703 638.966 27.3482 638.966 26.0042C638.966 24.7728 638.533 23.7234 637.665 22.8561C636.805 21.9822 635.769 21.5453 634.557 21.5453C633.293 21.5453 632.22 21.9789 631.34 22.8462C630.459 23.7135 630.019 24.7662 630.019 26.0042ZM627.049 26.1035C627.049 25.309 627.155 24.5609 627.367 23.8591C627.579 23.1508 627.894 22.4887 628.311 21.873C629.026 20.8336 629.923 20.0325 631.002 19.4698C632.081 18.9004 633.259 18.6157 634.537 18.6157C635.497 18.6157 636.421 18.8011 637.308 19.1718C638.202 19.5426 638.999 20.0755 639.701 20.7707C640.423 21.4923 640.972 22.3033 641.35 23.2037C641.727 24.1041 641.916 25.0508 641.916 26.0439C641.916 27.0767 641.737 28.0466 641.38 28.9536C641.029 29.8606 640.509 30.665 639.82 31.3668C639.125 32.1017 638.314 32.6677 637.387 33.065C636.467 33.4556 635.504 33.6509 634.498 33.6509C633.418 33.6509 632.425 33.4589 631.518 33.0749C630.611 32.6909 629.807 32.1215 629.105 31.3668C628.43 30.6518 627.917 29.8507 627.566 28.9636C627.222 28.0698 627.049 27.1164 627.049 26.1035ZM642.413 28.8742L644.995 28.8642V29.0728C644.995 29.6819 645.154 30.1718 645.471 30.5425C645.789 30.9067 646.213 31.0887 646.743 31.0887C647.312 31.0887 647.762 30.9199 648.093 30.5823C648.424 30.238 648.59 29.7746 648.59 29.192C648.59 28.2585 647.921 27.5898 646.584 27.186C646.412 27.133 646.276 27.09 646.176 27.0569C645.051 26.706 644.217 26.2094 643.674 25.5672C643.131 24.9184 642.86 24.1008 642.86 23.1143C642.86 21.7571 643.234 20.6681 643.982 19.8471C644.737 19.0262 645.74 18.6157 646.991 18.6157C648.163 18.6157 649.096 18.9831 649.791 19.718C650.486 20.4463 650.874 21.4691 650.953 22.7866H648.391V22.6675C648.391 22.204 648.252 21.83 647.974 21.5453C647.696 21.2606 647.332 21.1183 646.882 21.1183C646.418 21.1183 646.051 21.2639 645.779 21.5552C645.514 21.8465 645.382 22.2437 645.382 22.7469C645.382 22.9588 645.409 23.1474 645.461 23.313C645.521 23.4718 645.61 23.6175 645.73 23.7499C646.001 24.0478 646.584 24.3226 647.477 24.5742C647.875 24.6801 648.179 24.7695 648.391 24.8423C649.384 25.1799 650.116 25.6632 650.586 26.2922C651.062 26.9211 651.301 27.7255 651.301 28.7054C651.301 30.195 650.887 31.3933 650.059 32.3003C649.232 33.2007 648.133 33.6509 646.762 33.6509C645.471 33.6509 644.429 33.2139 643.634 32.34C642.84 31.4661 642.433 30.3108 642.413 28.8742ZM659.832 18.9037V21.446H657.101V33.3629H654.28V21.446H651.549V18.9037H659.832ZM666.436 27.6527L664.728 22.9952L662.98 27.6527H666.436ZM662.007 30.334L660.885 33.3629H657.955L663.566 18.9037H666.009L671.541 33.3629H668.512L667.37 30.334H662.007Z" fill="#FFFFF1"/>
</svg>
