<svg width="1025" height="104" viewBox="0 0 1025 104" fill="none" xmlns="http://www.w3.org/2000/svg">
<path d="M30.113 25.3425C41.7536 25.3425 49.1838 32.7727 49.1838 43.34C49.1838 54.8155 40.185 62.9887 25.3247 62.9887C13.7666 62.9887 4.52016 58.2004 2.37367 47.1377L19.0503 43.2575C20.2887 46.7249 22.6828 47.8807 25.2421 47.8807C28.4618 47.8807 30.856 45.5691 30.856 42.3494C30.856 39.1296 28.627 36.818 25.1595 36.818C22.8479 36.818 20.5363 38.1389 19.6282 40.2854L5.01551 33.4331L9.63873 6.76706H46.4594V21.71H22.9305L21.7747 27.0762C24.0863 25.9204 26.8107 25.3425 30.113 25.3425ZM80.5537 62.9062C65.3631 62.9062 54.8783 51.2656 54.8783 34.4238C54.8783 17.5821 65.3631 5.85893 80.5537 5.85893C95.8268 5.85893 106.229 17.5821 106.229 34.4238C106.229 51.2656 95.8268 62.9062 80.5537 62.9062ZM80.5537 46.0644C84.9293 46.0644 87.5711 41.6889 87.5711 34.3413C87.5711 27.1588 84.9293 22.7007 80.5537 22.7007C76.0956 22.7007 73.5363 27.1588 73.5363 34.3413C73.5363 41.6063 76.0956 46.0644 80.5537 46.0644ZM138.708 27.9018H149.936V42.6796H138.708V54.3202H123.187V42.6796H111.877V27.9018H123.187V16.2612H138.708V27.9018Z" fill="#FFFFF1"/>
<path d="M6.76182 82.2011H10.441V93.045C10.441 94.7404 10.6174 95.9195 10.9703 96.5822C11.3318 97.2362 11.9471 97.5633 12.8163 97.5633C13.6856 97.5633 14.2966 97.2362 14.6495 96.5822C15.011 95.9195 15.1917 94.7404 15.1917 93.045V82.2011H18.8709V94.1294C18.8709 95.4547 18.7977 96.4488 18.6514 97.1115C18.5051 97.7741 18.2598 98.3551 17.9156 98.8542C17.3303 99.7149 16.6246 100.352 15.7984 100.765C14.9722 101.169 13.9782 101.372 12.8163 101.372C11.6545 101.372 10.6605 101.169 9.83427 100.765C9.00807 100.352 8.30235 99.7149 7.71712 98.8542C7.37287 98.3551 7.12759 97.7957 6.98128 97.176C6.83498 96.5563 6.76182 95.5408 6.76182 94.1294V82.2011ZM25.0808 100.997H21.4662V82.2011H24.9517L32.7232 94.2068V82.2011H36.3249V100.997H32.9168L25.0808 88.63V100.997ZM38.9848 100.997V82.2011H42.664V100.997H38.9848ZM52.5144 100.997H49.8938L43.1551 82.2011H47.0924L51.1976 94.7361L55.3157 82.2011H59.2273L52.5144 100.997ZM69.891 100.997H59.7442V82.2011H69.891V85.5059H63.3847V89.7918H69.891V93.045H63.3847V97.6924H69.891V100.997ZM76.1139 91.3409H76.9272C78.4161 91.3409 79.5435 91.0741 80.3094 90.5406C81.084 89.9984 81.4713 89.2109 81.4713 88.1781C81.4713 87.1798 81.1485 86.444 80.5031 85.9706C79.8576 85.4973 78.8507 85.2606 77.4823 85.2606H76.1139V91.3409ZM76.1139 100.997H72.4347V82.2011H76.9013C78.3214 82.2011 79.3757 82.2527 80.0642 82.356C80.7613 82.4506 81.3551 82.6099 81.8457 82.8336C82.9128 83.3328 83.7261 84.0299 84.2855 84.925C84.845 85.82 85.1247 86.87 85.1247 88.0749C85.1247 89.5293 84.7245 90.7643 83.9241 91.7799C83.1237 92.7868 82.035 93.428 80.658 93.7034L85.357 100.997H80.9678L76.1139 92.2704V100.997ZM85.8223 95.1621L89.1787 95.1492V95.4203C89.1787 96.2121 89.3853 96.849 89.7984 97.3309C90.2115 97.8043 90.7623 98.0409 91.4508 98.0409C92.1909 98.0409 92.7762 97.8215 93.2065 97.3826C93.6368 96.935 93.8519 96.3326 93.8519 95.5752C93.8519 94.3617 92.9827 93.4925 91.2442 92.9675C91.0205 92.8987 90.8441 92.8427 90.715 92.7997C89.2519 92.3436 88.1675 91.6981 87.4618 90.8633C86.7561 90.0199 86.4032 88.957 86.4032 87.6747C86.4032 85.9104 86.8895 84.4946 87.862 83.4275C88.8431 82.3603 90.1469 81.8267 91.7735 81.8267C93.2968 81.8267 94.5103 82.3043 95.414 83.2596C96.3176 84.2063 96.8211 85.536 96.9244 87.2486H93.5938V87.0937C93.5938 86.4913 93.413 86.005 93.0516 85.635C92.6901 85.2649 92.2168 85.0799 91.6315 85.0799C91.0291 85.0799 90.5514 85.2692 90.1986 85.6479C89.8543 86.0266 89.6822 86.5429 89.6822 87.197C89.6822 87.4724 89.7166 87.7177 89.7855 87.9328C89.8629 88.1394 89.9791 88.3287 90.134 88.5009C90.4869 88.8881 91.2442 89.2453 92.4061 89.5723C92.9225 89.71 93.3184 89.8262 93.5938 89.9209C94.8847 90.3598 95.8357 90.9881 96.4467 91.8057C97.0664 92.6233 97.3762 93.6689 97.3762 94.9427C97.3762 96.8791 96.8383 98.4368 95.7625 99.6159C94.6868 100.786 93.2581 101.372 91.4766 101.372C89.7984 101.372 88.4429 100.804 87.4101 99.6675C86.3774 98.5315 85.8481 97.0297 85.8223 95.1621ZM99.1324 100.997V82.2011H102.812V100.997H99.1324ZM114.779 82.2011V85.5059H111.229V100.997H107.563V85.5059H104.013V82.2011H114.779ZM115.993 100.997V82.2011H119.672V100.997H115.993ZM132.427 100.997H122.281V82.2011H132.427V85.5059H125.921V89.7918H132.427V93.045H125.921V97.6924H132.427V100.997ZM133.835 95.1621L137.191 95.1492V95.4203C137.191 96.2121 137.398 96.849 137.811 97.3309C138.224 97.8043 138.775 98.0409 139.464 98.0409C140.204 98.0409 140.789 97.8215 141.219 97.3826C141.65 96.935 141.865 96.3326 141.865 95.5752C141.865 94.3617 140.995 93.4925 139.257 92.9675C139.033 92.8987 138.857 92.8427 138.728 92.7997C137.265 92.3436 136.18 91.6981 135.475 90.8633C134.769 90.0199 134.416 88.957 134.416 87.6747C134.416 85.9104 134.902 84.4946 135.875 83.4275C136.856 82.3603 138.16 81.8267 139.786 81.8267C141.31 81.8267 142.523 82.3043 143.427 83.2596C144.33 84.2063 144.834 85.536 144.937 87.2486H141.607V87.0937C141.607 86.4913 141.426 86.005 141.064 85.635C140.703 85.2649 140.23 85.0799 139.644 85.0799C139.042 85.0799 138.564 85.2692 138.211 85.6479C137.867 86.0266 137.695 86.5429 137.695 87.197C137.695 87.4724 137.729 87.7177 137.798 87.9328C137.876 88.1394 137.992 88.3287 138.147 88.5009C138.5 88.8881 139.257 89.2453 140.419 89.5723C140.935 89.71 141.331 89.8262 141.607 89.9209C142.897 90.3598 143.848 90.9881 144.46 91.8057C145.079 92.6233 145.389 93.6689 145.389 94.9427C145.389 96.8791 144.851 98.4368 143.775 99.6159C142.7 100.786 141.271 101.372 139.489 101.372C137.811 101.372 136.456 100.804 135.423 99.6675C134.39 98.5315 133.861 97.0297 133.835 95.1621Z" fill="#FFFFF1"/>
<path d="M272.599 43.0098L268.636 46.3121H284.322V62.0806H241.805V48.4586L261.124 31.6994C263.6 29.5529 265.912 27.7367 265.912 25.0948C265.912 22.6181 263.931 21.5449 261.949 21.5449C259.39 21.5449 256.996 23.196 256.996 27.3239L240.649 25.5902C240.567 13.867 249.731 5.85893 263.022 5.85893C275.406 5.85893 284.075 13.2066 284.075 23.939C284.075 32.8552 278.461 38.1389 272.599 43.0098ZM316.556 62.9062C301.366 62.9062 290.881 51.2656 290.881 34.4238C290.881 17.5821 301.366 5.85893 316.556 5.85893C331.83 5.85893 342.232 17.5821 342.232 34.4238C342.232 51.2656 331.83 62.9062 316.556 62.9062ZM316.556 46.0644C320.932 46.0644 323.574 41.6889 323.574 34.3413C323.574 27.1588 320.932 22.7007 316.556 22.7007C312.098 22.7007 309.539 27.1588 309.539 34.3413C309.539 41.6063 312.098 46.0644 316.556 46.0644ZM373.637 62.9062C358.447 62.9062 347.962 51.2656 347.962 34.4238C347.962 17.5821 358.447 5.85893 373.637 5.85893C388.91 5.85893 399.313 17.5821 399.313 34.4238C399.313 51.2656 388.91 62.9062 373.637 62.9062ZM373.637 46.0644C378.013 46.0644 380.655 41.6889 380.655 34.3413C380.655 27.1588 378.013 22.7007 373.637 22.7007C369.179 22.7007 366.62 27.1588 366.62 34.3413C366.62 41.6063 369.179 46.0644 373.637 46.0644ZM430.718 62.9062C415.527 62.9062 405.043 51.2656 405.043 34.4238C405.043 17.5821 415.527 5.85893 430.718 5.85893C445.991 5.85893 456.393 17.5821 456.393 34.4238C456.393 51.2656 445.991 62.9062 430.718 62.9062ZM430.718 46.0644C435.094 46.0644 437.735 41.6889 437.735 34.3413C437.735 27.1588 435.094 22.7007 430.718 22.7007C426.26 22.7007 423.701 27.1588 423.701 34.3413C423.701 41.6063 426.26 46.0644 430.718 46.0644ZM488.872 27.9018H500.1V42.6796H488.872V54.3202H473.351V42.6796H462.041V27.9018H473.351V16.2612H488.872V27.9018Z" fill="#FFFFF1"/>
<path d="M299.029 90.6051H299.997C301.021 90.6051 301.804 90.3856 302.346 89.9467C302.897 89.4992 303.173 88.8623 303.173 88.0361C303.173 87.1841 302.906 86.5515 302.372 86.1384C301.847 85.7167 301.047 85.5059 299.971 85.5059H299.029V90.6051ZM299.029 100.997H295.349V82.2011H300.023C301.21 82.2011 302.144 82.2656 302.824 82.3947C303.512 82.5238 304.068 82.7303 304.489 83.0144C305.264 83.5393 305.871 84.2321 306.31 85.0928C306.757 85.9534 306.981 86.8743 306.981 87.8554C306.981 89.6541 306.387 91.0914 305.199 92.1671C304.012 93.2429 302.411 93.7808 300.397 93.7808H299.029V100.997ZM315.824 93.5743L313.604 87.5197L311.332 93.5743H315.824ZM310.067 97.0598L308.608 100.997H304.8L312.093 82.2011H315.269L322.46 100.997H318.522L317.038 97.0598H310.067ZM326.423 91.3409H327.237C328.726 91.3409 329.853 91.0741 330.619 90.5406C331.394 89.9984 331.781 89.2109 331.781 88.1781C331.781 87.1798 331.458 86.444 330.813 85.9706C330.167 85.4973 329.16 85.2606 327.792 85.2606H326.423V91.3409ZM326.423 100.997H322.744V82.2011H327.211C328.631 82.2011 329.685 82.2527 330.374 82.356C331.071 82.4506 331.665 82.6099 332.155 82.8336C333.222 83.3328 334.036 84.0299 334.595 84.925C335.155 85.82 335.434 86.87 335.434 88.0749C335.434 89.5293 335.034 90.7643 334.234 91.7799C333.433 92.7868 332.345 93.428 330.968 93.7034L335.667 100.997H331.277L326.423 92.2704V100.997ZM346.627 82.2011V85.5059H343.077V100.997H339.411V85.5059H335.861V82.2011H346.627ZM347.841 100.997V82.2011H351.52V100.997H347.841ZM371.789 87.7779H367.296C366.763 87.055 366.126 86.5128 365.386 86.1513C364.654 85.7899 363.819 85.6092 362.881 85.6092C362.124 85.6092 361.405 85.7512 360.725 86.0352C360.045 86.3192 359.443 86.7323 358.918 87.2745C358.359 87.8425 357.924 88.5009 357.614 89.2496C357.313 89.9898 357.162 90.7514 357.162 91.5346C357.162 93.2558 357.713 94.7017 358.815 95.8721C359.925 97.034 361.28 97.6149 362.881 97.6149C363.802 97.6149 364.628 97.4428 365.36 97.0985C366.1 96.7543 366.698 96.2551 367.154 95.6011H371.66C370.782 97.5203 369.611 98.9618 368.148 99.9257C366.685 100.89 364.938 101.372 362.907 101.372C361.496 101.372 360.192 101.1 358.995 100.558C357.808 100.016 356.741 99.2114 355.794 98.1442C354.994 97.2578 354.387 96.2508 353.974 95.1234C353.561 93.9874 353.354 92.7739 353.354 91.4829C353.354 90.1748 353.604 88.9355 354.103 87.765C354.602 86.586 355.333 85.5145 356.297 84.5506C357.21 83.6555 358.221 82.9799 359.331 82.5238C360.45 82.0591 361.651 81.8267 362.933 81.8267C364.99 81.8267 366.745 82.3172 368.2 83.2984C369.663 84.2795 370.859 85.7727 371.789 87.7779ZM373.506 100.997V82.2011H377.185V100.997H373.506ZM383.473 90.6051H384.441C385.465 90.6051 386.248 90.3856 386.791 89.9467C387.341 89.4992 387.617 88.8623 387.617 88.0361C387.617 87.1841 387.35 86.5515 386.816 86.1384C386.291 85.7167 385.491 85.5059 384.415 85.5059H383.473V90.6051ZM383.473 100.997H379.794V82.2011H384.467C385.654 82.2011 386.588 82.2656 387.268 82.3947C387.957 82.5238 388.512 82.7303 388.933 83.0144C389.708 83.5393 390.315 84.2321 390.754 85.0928C391.201 85.9534 391.425 86.8743 391.425 87.8554C391.425 89.6541 390.831 91.0914 389.643 92.1671C388.456 93.2429 386.855 93.7808 384.841 93.7808H383.473V100.997ZM400.268 93.5743L398.048 87.5197L395.776 93.5743H400.268ZM394.511 97.0598L393.052 100.997H389.244L396.538 82.2011H399.713L406.904 100.997H402.967L401.482 97.0598H394.511ZM410.803 100.997H407.188V82.2011H410.674L418.445 94.2068V82.2011H422.047V100.997H418.639L410.803 88.63V100.997ZM434.041 82.2011V85.5059H430.49V100.997H426.824V85.5059H423.274V82.2011H434.041ZM434.093 95.1621L437.449 95.1492V95.4203C437.449 96.2121 437.656 96.849 438.069 97.3309C438.482 97.8043 439.033 98.0409 439.721 98.0409C440.461 98.0409 441.047 97.8215 441.477 97.3826C441.907 96.935 442.122 96.3326 442.122 95.5752C442.122 94.3617 441.253 93.4925 439.515 92.9675C439.291 92.8987 439.114 92.8427 438.985 92.7997C437.522 92.3436 436.438 91.6981 435.732 90.8633C435.027 90.0199 434.674 88.957 434.674 87.6747C434.674 85.9104 435.16 84.4946 436.132 83.4275C437.114 82.3603 438.417 81.8267 440.044 81.8267C441.567 81.8267 442.781 82.3043 443.684 83.2596C444.588 84.2063 445.092 85.536 445.195 87.2486H441.864V87.0937C441.864 86.4913 441.683 86.005 441.322 85.635C440.961 85.2649 440.487 85.0799 439.902 85.0799C439.3 85.0799 438.822 85.2692 438.469 85.6479C438.125 86.0266 437.953 86.5429 437.953 87.197C437.953 87.4724 437.987 87.7177 438.056 87.9328C438.133 88.1394 438.25 88.3287 438.404 88.5009C438.757 88.8881 439.515 89.2453 440.677 89.5723C441.193 89.71 441.589 89.8262 441.864 89.9209C443.155 90.3598 444.106 90.9881 444.717 91.8057C445.337 92.6233 445.647 93.6689 445.647 94.9427C445.647 96.8791 445.109 98.4368 444.033 99.6159C442.957 100.786 441.529 101.372 439.747 101.372C438.069 101.372 436.713 100.804 435.681 99.6675C434.648 98.5315 434.119 97.0297 434.093 95.1621Z" fill="#FFFFF1"/>
<path d="M622.566 43.0098L618.603 46.3121H634.289V62.0806H591.772V48.4586L611.09 31.6994C613.567 29.5529 615.878 27.7367 615.878 25.0948C615.878 22.6181 613.897 21.5449 611.916 21.5449C609.356 21.5449 606.962 23.196 606.962 27.3239L590.616 25.5902C590.533 13.867 599.697 5.85893 612.989 5.85893C625.373 5.85893 634.041 13.2066 634.041 23.939C634.041 32.8552 628.427 38.1389 622.566 43.0098ZM667.761 25.3425C679.402 25.3425 686.832 32.7727 686.832 43.34C686.832 54.8155 677.833 62.9887 662.973 62.9887C651.415 62.9887 642.169 58.2004 640.022 47.1377L656.699 43.2575C657.937 46.7249 660.331 47.8807 662.89 47.8807C666.11 47.8807 668.504 45.5691 668.504 42.3494C668.504 39.1296 666.275 36.818 662.808 36.818C660.496 36.818 658.185 38.1389 657.277 40.2854L642.664 33.4331L647.287 6.76706H684.108V21.71H660.579L659.423 27.0762C661.735 25.9204 664.459 25.3425 667.761 25.3425ZM719.275 27.9018H730.503V42.6796H719.275V54.3202H703.754V42.6796H692.444V27.9018H703.754V16.2612H719.275V27.9018Z" fill="#FFFFF1"/>
<path d="M620.482 90.6051H621.45C622.474 90.6051 623.257 90.3856 623.8 89.9467C624.35 89.4992 624.626 88.8623 624.626 88.0361C624.626 87.1841 624.359 86.5515 623.825 86.1384C623.3 85.7167 622.5 85.5059 621.424 85.5059H620.482V90.6051ZM620.482 100.997H616.803V82.2011H621.476C622.663 82.2011 623.597 82.2656 624.277 82.3947C624.966 82.5238 625.521 82.7303 625.942 83.0144C626.717 83.5393 627.324 84.2321 627.763 85.0928C628.21 85.9534 628.434 86.8743 628.434 87.8554C628.434 89.6541 627.84 91.0914 626.652 92.1671C625.465 93.2429 623.864 93.7808 621.85 93.7808H620.482V100.997ZM637.277 93.5743L635.057 87.5197L632.785 93.5743H637.277ZM631.52 97.0598L630.061 100.997H626.253L633.547 82.2011H636.722L643.913 100.997H639.976L638.491 97.0598H631.52ZM652.472 82.2011V85.5059H648.922V100.997H645.256V85.5059H641.706V82.2011H652.472ZM663.807 100.997H653.661V82.2011H663.807V85.5059H657.301V89.7918H663.807V93.045H657.301V97.6924H663.807V100.997ZM669.966 100.997H666.351V82.2011H669.837L677.608 94.2068V82.2011H681.21V100.997H677.802L669.966 88.63V100.997ZM693.203 82.2011V85.5059H689.653V100.997H685.987V85.5059H682.437V82.2011H693.203ZM693.255 95.1621L696.612 95.1492V95.4203C696.612 96.2121 696.818 96.849 697.231 97.3309C697.645 97.8043 698.195 98.0409 698.884 98.0409C699.624 98.0409 700.209 97.8215 700.64 97.3826C701.07 96.935 701.285 96.3326 701.285 95.5752C701.285 94.3617 700.416 93.4925 698.677 92.9675C698.454 92.8987 698.277 92.8427 698.148 92.7997C696.685 92.3436 695.601 91.6981 694.895 90.8633C694.189 90.0199 693.836 88.957 693.836 87.6747C693.836 85.9104 694.323 84.4946 695.295 83.4275C696.276 82.3603 697.58 81.8267 699.207 81.8267C700.73 81.8267 701.943 82.3043 702.847 83.2596C703.751 84.2063 704.254 85.536 704.357 87.2486H701.027V87.0937C701.027 86.4913 700.846 86.005 700.485 85.635C700.123 85.2649 699.65 85.0799 699.065 85.0799C698.462 85.0799 697.985 85.2692 697.632 85.6479C697.287 86.0266 697.115 86.5429 697.115 87.197C697.115 87.4724 697.15 87.7177 697.219 87.9328C697.296 88.1394 697.412 88.3287 697.567 88.5009C697.92 88.8881 698.677 89.2453 699.839 89.5723C700.356 89.71 700.751 89.8262 701.027 89.9209C702.318 90.3598 703.269 90.9881 703.88 91.8057C704.499 92.6233 704.809 93.6689 704.809 94.9427C704.809 96.8791 704.271 98.4368 703.196 99.6159C702.12 100.786 700.691 101.372 698.91 101.372C697.231 101.372 695.876 100.804 694.843 99.6675C693.81 98.5315 693.281 97.0297 693.255 95.1621Z" fill="#FFFFF1"/>
<path d="M861.524 32.1122C867.137 34.8366 869.862 39.9552 869.862 45.1563C869.862 55.3109 860.45 62.9062 845.012 62.9062C829.574 62.9062 820.327 55.3109 820.327 45.0738C820.327 39.8726 822.969 34.7541 828.666 32.1122C825.116 29.8006 823.052 26.3332 823.052 21.8751C823.052 12.7112 831.885 5.85893 844.929 5.85893C858.056 5.85893 866.972 12.7112 866.972 21.9576C866.972 26.3332 864.991 29.8006 861.524 32.1122ZM845.012 19.5635C842.37 19.5635 840.554 21.3797 840.554 23.939C840.554 26.4158 842.288 28.232 845.095 28.232C847.736 28.232 849.635 26.4983 849.635 23.8565C849.635 21.4623 847.736 19.5635 845.012 19.5635ZM845.012 48.7063C848.149 48.7063 850.296 46.5598 850.296 43.7528C850.296 40.8633 848.067 38.8819 845.012 38.8819C842.122 38.8819 839.811 40.8633 839.811 43.7528C839.811 46.5598 842.04 48.7063 845.012 48.7063ZM902.149 25.3425C913.79 25.3425 921.22 32.7727 921.22 43.34C921.22 54.8155 912.221 62.9887 897.361 62.9887C885.803 62.9887 876.556 58.2004 874.41 47.1377L891.086 43.2575C892.325 46.7249 894.719 47.8807 897.278 47.8807C900.498 47.8807 902.892 45.5691 902.892 42.3494C902.892 39.1296 900.663 36.818 897.195 36.818C894.884 36.818 892.572 38.1389 891.664 40.2854L877.051 33.4331L881.675 6.76706H918.495V21.71H894.966L893.811 27.0762C896.122 25.9204 898.847 25.3425 902.149 25.3425ZM952.59 62.9062C937.399 62.9062 926.914 51.2656 926.914 34.4238C926.914 17.5821 937.399 5.85893 952.59 5.85893C967.863 5.85893 978.265 17.5821 978.265 34.4238C978.265 51.2656 967.863 62.9062 952.59 62.9062ZM952.59 46.0644C956.965 46.0644 959.607 41.6889 959.607 34.3413C959.607 27.1588 956.965 22.7007 952.59 22.7007C948.132 22.7007 945.572 27.1588 945.572 34.3413C945.572 41.6063 948.132 46.0644 952.59 46.0644ZM1010.74 27.9018H1021.97V42.6796H1010.74V54.3202H995.223V42.6796H983.912V27.9018H995.223V16.2612H1010.74V27.9018Z" fill="#FFFFF1"/>
<path d="M869.929 90.6051H870.897C871.922 90.6051 872.705 90.3856 873.247 89.9467C873.798 89.4992 874.073 88.8623 874.073 88.0361C874.073 87.1841 873.806 86.5515 873.273 86.1384C872.748 85.7167 871.947 85.5059 870.872 85.5059H869.929V90.6051ZM869.929 100.997H866.25V82.2011H870.923C872.111 82.2011 873.045 82.2656 873.725 82.3947C874.413 82.5238 874.968 82.7303 875.39 83.0144C876.165 83.5393 876.771 84.2321 877.21 85.0928C877.658 85.9534 877.881 86.8743 877.881 87.8554C877.881 89.6541 877.288 91.0914 876.1 92.1671C874.912 93.2429 873.312 93.7808 871.298 93.7808H869.929V100.997ZM883.007 91.3409H883.82C885.309 91.3409 886.437 91.0741 887.203 90.5406C887.977 89.9984 888.364 89.2109 888.364 88.1781C888.364 87.1798 888.042 86.444 887.396 85.9706C886.751 85.4973 885.744 85.2606 884.375 85.2606H883.007V91.3409ZM883.007 100.997H879.328V82.2011H883.795C885.215 82.2011 886.269 82.2527 886.957 82.356C887.654 82.4506 888.248 82.6099 888.739 82.8336C889.806 83.3328 890.619 84.0299 891.179 84.925C891.738 85.82 892.018 86.87 892.018 88.0749C892.018 89.5293 891.618 90.7643 890.817 91.7799C890.017 92.7868 888.928 93.428 887.551 93.7034L892.25 100.997H887.861L883.007 92.2704V100.997ZM896.885 91.4313C896.885 92.2403 897.019 92.9933 897.285 93.6905C897.552 94.3876 897.948 95.0244 898.473 95.6011C899.05 96.2293 899.704 96.7156 900.435 97.0598C901.167 97.3955 901.924 97.5633 902.707 97.5633C904.351 97.5633 905.728 96.9781 906.838 95.8076C907.957 94.6371 908.517 93.1784 908.517 91.4313C908.517 89.8305 907.953 88.4664 906.825 87.339C905.707 86.203 904.36 85.635 902.785 85.635C901.141 85.635 899.747 86.1987 898.602 87.3261C897.457 88.4535 896.885 89.8219 896.885 91.4313ZM893.025 91.5604C893.025 90.5276 893.163 89.5551 893.438 88.6429C893.714 87.722 894.123 86.8614 894.665 86.061C895.594 84.7098 896.76 83.6684 898.163 82.9369C899.566 82.1968 901.098 81.8267 902.759 81.8267C904.007 81.8267 905.207 82.0677 906.361 82.5496C907.523 83.0316 908.56 83.7244 909.472 84.628C910.41 85.5661 911.124 86.6204 911.615 87.7908C912.105 88.9613 912.351 90.192 912.351 91.4829C912.351 92.8255 912.118 94.0863 911.654 95.2654C911.197 96.4445 910.522 97.4901 909.627 98.4024C908.723 99.3577 907.669 100.094 906.464 100.61C905.268 101.118 904.015 101.372 902.707 101.372C901.305 101.372 900.014 101.122 898.835 100.623C897.655 100.124 896.61 99.3835 895.698 98.4024C894.82 97.4729 894.153 96.4316 893.697 95.2783C893.249 94.1165 893.025 92.8772 893.025 91.5604ZM922.963 94.5683C922.963 95.8334 922.898 96.7887 922.769 97.4342C922.64 98.0797 922.421 98.6434 922.111 99.1253C921.655 99.8483 921.044 100.403 920.278 100.791C919.52 101.178 918.66 101.372 917.696 101.372C916.035 101.372 914.765 100.907 913.887 99.9773C913.01 99.0393 912.571 97.6881 912.571 95.9238H916.224V95.9754C916.224 96.509 916.349 96.9264 916.598 97.2276C916.857 97.5203 917.214 97.6666 917.67 97.6666C918.255 97.6666 918.668 97.417 918.909 96.9178C919.159 96.41 919.284 95.5322 919.284 94.2843V82.2011H922.963V94.5683ZM935.679 100.997H925.532V82.2011H935.679V85.5059H929.173V89.7918H935.679V93.045H929.173V97.6924H935.679V100.997ZM955.883 87.7779H951.39C950.857 87.055 950.22 86.5128 949.48 86.1513C948.748 85.7899 947.913 85.6092 946.975 85.6092C946.218 85.6092 945.499 85.7512 944.819 86.0352C944.14 86.3192 943.537 86.7323 943.012 87.2745C942.453 87.8425 942.018 88.5009 941.708 89.2496C941.407 89.9898 941.256 90.7514 941.256 91.5346C941.256 93.2558 941.807 94.7017 942.909 95.8721C944.019 97.034 945.375 97.6149 946.975 97.6149C947.896 97.6149 948.722 97.4428 949.454 97.0985C950.194 96.7543 950.792 96.2551 951.248 95.6011H955.754C954.876 97.5203 953.705 98.9618 952.242 99.9257C950.779 100.89 949.032 101.372 947.001 101.372C945.59 101.372 944.286 101.1 943.09 100.558C941.902 100.016 940.835 99.2114 939.888 98.1442C939.088 97.2578 938.481 96.2508 938.068 95.1234C937.655 93.9874 937.448 92.7739 937.448 91.4829C937.448 90.1748 937.698 88.9355 938.197 87.765C938.696 86.586 939.428 85.5145 940.392 84.5506C941.304 83.6555 942.315 82.9799 943.425 82.5238C944.544 82.0591 945.745 81.8267 947.027 81.8267C949.084 81.8267 950.84 82.3172 952.294 83.2984C953.757 84.2795 954.953 85.7727 955.883 87.7779ZM966.934 82.2011V85.5059H963.384V100.997H959.717V85.5059H956.167V82.2011H966.934ZM966.986 95.1621L970.342 95.1492V95.4203C970.342 96.2121 970.549 96.849 970.962 97.3309C971.375 97.8043 971.926 98.0409 972.614 98.0409C973.355 98.0409 973.94 97.8215 974.37 97.3826C974.8 96.935 975.016 96.3326 975.016 95.5752C975.016 94.3617 974.146 93.4925 972.408 92.9675C972.184 92.8987 972.008 92.8427 971.879 92.7997C970.416 92.3436 969.331 91.6981 968.625 90.8633C967.92 90.0199 967.567 88.957 967.567 87.6747C967.567 85.9104 968.053 84.4946 969.026 83.4275C970.007 82.3603 971.311 81.8267 972.937 81.8267C974.461 81.8267 975.674 82.3043 976.578 83.2596C977.481 84.2063 977.985 85.536 978.088 87.2486H974.757V87.0937C974.757 86.4913 974.577 86.005 974.215 85.635C973.854 85.2649 973.38 85.0799 972.795 85.0799C972.193 85.0799 971.715 85.2692 971.362 85.6479C971.018 86.0266 970.846 86.5429 970.846 87.197C970.846 87.4724 970.88 87.7177 970.949 87.9328C971.027 88.1394 971.143 88.3287 971.298 88.5009C971.651 88.8881 972.408 89.2453 973.57 89.5723C974.086 89.71 974.482 89.8262 974.757 89.9209C976.048 90.3598 976.999 90.9881 977.61 91.8057C978.23 92.6233 978.54 93.6689 978.54 94.9427C978.54 96.8791 978.002 98.4368 976.926 99.6159C975.85 100.786 974.422 101.372 972.64 101.372C970.962 101.372 969.607 100.804 968.574 99.6675C967.541 98.5315 967.012 97.0297 966.986 95.1621Z" fill="#FFFFF1"/>
</svg>
