<svg width="161" height="41" viewBox="0 0 161 41" fill="none" xmlns="http://www.w3.org/2000/svg">
<g clip-path="url(#clip0_66_46)">
<rect x="-33.4393" y="-0.621212" width="228.606" height="42.2424" rx="21.1212" stroke="#FFFFF1" stroke-width="1.24242"/>
<path d="M21.6608 27.1818V15.1976H26.4445C29.0025 15.1976 30.5639 16.6178 30.5639 18.9349V18.9515C30.5639 20.5627 29.7001 21.8666 28.3049 22.3732L30.921 27.1818H28.4793L26.1206 22.6971H23.8035V27.1818H21.6608ZM23.8035 21.0028H26.2203C27.574 21.0028 28.3713 20.2554 28.3713 18.9681V18.9515C28.3713 17.6974 27.5242 16.9334 26.1788 16.9334H23.8035V21.0028ZM32.2913 27.1818V15.1976H40.0483V16.9998H34.434V20.2305H39.741V21.9662H34.434V25.3796H40.0483V27.1818H32.2913ZM47.174 27.3894C43.6776 27.3894 41.5016 25.0142 41.5016 21.144V21.1357C41.5016 17.332 43.6776 14.99 47.1325 14.99C49.9728 14.99 51.8165 16.6344 52.2733 18.8435L52.3065 18.9764H50.1306L50.1057 18.8851C49.6489 17.5978 48.6108 16.8503 47.1408 16.8503C44.9815 16.8503 43.6859 18.4283 43.6859 21.1191V21.1274C43.6859 23.8764 45.0396 25.5291 47.1989 25.5291C49.0094 25.5291 50.2552 24.4162 50.2967 22.7386L50.305 22.5559H47.3318V20.8866H52.3979V22.1822C52.3979 25.4378 50.4545 27.3894 47.174 27.3894ZM54.1503 27.1818V15.1976H56.293V27.1818H54.1503ZM62.6131 27.3894C59.8641 27.3894 58.0536 26.0939 57.9125 23.9428L57.9042 23.8183H59.9555L59.9721 23.9179C60.1299 24.9478 61.1847 25.5872 62.6879 25.5872C64.1994 25.5872 65.1462 24.9145 65.1462 23.8847V23.8764C65.1462 22.9795 64.5233 22.4978 62.9786 22.1739L61.6913 21.9081C59.3326 21.4181 58.1699 20.3218 58.1699 18.5362V18.5279C58.1782 16.4184 60.0303 14.99 62.6131 14.99C65.2292 14.99 66.9401 16.3686 67.0646 18.42L67.073 18.5612H65.0216L65.005 18.4615C64.8638 17.4151 63.9419 16.7922 62.5965 16.7922C61.193 16.8005 60.3209 17.4566 60.3209 18.4117V18.42C60.3209 19.2671 60.977 19.7654 62.4221 20.0644L63.7177 20.3301C66.2092 20.845 67.2972 21.8583 67.2972 23.7269V23.7352C67.2972 25.9693 65.5365 27.3894 62.6131 27.3894ZM71.4996 27.1818V16.9998H67.9118V15.1976H77.2134V16.9998H73.634V27.1818H71.4996ZM78.6834 27.1818V15.1976H86.4404V16.9998H80.8261V20.2305H86.1331V21.9662H80.8261V25.3796H86.4404V27.1818H78.6834ZM88.3007 27.1818V15.1976H93.0844C95.6424 15.1976 97.2038 16.6178 97.2038 18.9349V18.9515C97.2038 20.5627 96.34 21.8666 94.9448 22.3732L97.5609 27.1818H95.1192L92.7605 22.6971H90.4434V27.1818H88.3007ZM90.4434 21.0028H92.8602C94.2139 21.0028 95.0112 20.2554 95.0112 18.9681V18.9515C95.0112 17.6974 94.1641 16.9334 92.8187 16.9334H90.4434V21.0028ZM102.336 27.1818V15.1976H104.263L110.102 23.594H110.151V15.1976H112.277V27.1818H110.367L104.512 18.7522H104.471V27.1818H102.336ZM119.677 27.3894C116.173 27.3894 113.988 25.0059 113.988 21.1939V21.1772C113.988 17.3735 116.189 14.99 119.677 14.99C123.174 14.99 125.358 17.3735 125.358 21.1772V21.1939C125.358 25.0059 123.182 27.3894 119.677 27.3894ZM119.677 25.5291C121.845 25.5291 123.182 23.8349 123.182 21.1939V21.1772C123.182 18.5196 121.82 16.8503 119.677 16.8503C117.543 16.8503 116.173 18.5113 116.173 21.1772V21.1939C116.173 23.8598 117.535 25.5291 119.677 25.5291ZM129.17 27.1818L125.956 15.1976H128.182L130.266 24.2418H130.308L132.708 15.1976H134.651L137.051 24.2418H137.093L139.178 15.1976H141.403L138.189 27.1818H136.121L133.705 18.5861H133.655L131.238 27.1818H129.17Z" fill="#FFFFF1"/>
</g>
<rect x="1.34851" y="0.621212" width="159.03" height="39.7576" rx="19.8788" stroke="#FFFFF1" stroke-width="1.24242"/>
<defs>
<clipPath id="clip0_66_46">
<rect x="0.727295" width="160.273" height="41" rx="20.5" fill="white"/>
</clipPath>
</defs>
</svg>
