<svg width="1025" height="181" viewBox="0 0 1025 181" fill="none" xmlns="http://www.w3.org/2000/svg">
<path d="M30.113 102.343C41.7536 102.343 49.1838 109.773 49.1838 120.34C49.1838 131.816 40.185 139.989 25.3247 139.989C13.7666 139.989 4.52016 135.2 2.37367 124.138L19.0503 120.257C20.2887 123.725 22.6828 124.881 25.2421 124.881C28.4618 124.881 30.856 122.569 30.856 119.349C30.856 116.13 28.627 113.818 25.1595 113.818C22.8479 113.818 20.5363 115.139 19.6282 117.285L5.01551 110.433L9.63873 83.7671H46.4594V98.71H22.9305L21.7747 104.076C24.0863 102.92 26.8107 102.343 30.113 102.343ZM80.5537 139.906C65.3631 139.906 54.8783 128.266 54.8783 111.424C54.8783 94.5821 65.3631 82.8589 80.5537 82.8589C95.8268 82.8589 106.229 94.5821 106.229 111.424C106.229 128.266 95.8268 139.906 80.5537 139.906ZM80.5537 123.064C84.9293 123.064 87.5711 118.689 87.5711 111.341C87.5711 104.159 84.9293 99.7007 80.5537 99.7007C76.0956 99.7007 73.5363 104.159 73.5363 111.341C73.5363 118.606 76.0956 123.064 80.5537 123.064ZM138.708 104.902H149.936V119.68H138.708V131.32H123.187V119.68H111.877V104.902H123.187V93.2612H138.708V104.902Z" fill="#FFFFF1"/>
<path d="M6.76182 159.201H10.441V170.045C10.441 171.74 10.6174 172.919 10.9703 173.582C11.3318 174.236 11.9471 174.563 12.8163 174.563C13.6856 174.563 14.2966 174.236 14.6495 173.582C15.011 172.919 15.1917 171.74 15.1917 170.045V159.201H18.8709V171.129C18.8709 172.455 18.7977 173.449 18.6514 174.111C18.5051 174.774 18.2598 175.355 17.9156 175.854C17.3303 176.715 16.6246 177.352 15.7984 177.765C14.9722 178.169 13.9782 178.372 12.8163 178.372C11.6545 178.372 10.6605 178.169 9.83427 177.765C9.00807 177.352 8.30235 176.715 7.71712 175.854C7.37287 175.355 7.12759 174.796 6.98128 174.176C6.83498 173.556 6.76182 172.541 6.76182 171.129V159.201ZM25.0808 177.997H21.4662V159.201H24.9517L32.7232 171.207V159.201H36.3249V177.997H32.9168L25.0808 165.63V177.997ZM38.9848 177.997V159.201H42.664V177.997H38.9848ZM52.5144 177.997H49.8938L43.1551 159.201H47.0924L51.1976 171.736L55.3157 159.201H59.2273L52.5144 177.997ZM69.891 177.997H59.7442V159.201H69.891V162.506H63.3847V166.792H69.891V170.045H63.3847V174.692H69.891V177.997ZM76.1139 168.341H76.9272C78.4161 168.341 79.5435 168.074 80.3094 167.541C81.084 166.998 81.4713 166.211 81.4713 165.178C81.4713 164.18 81.1485 163.444 80.5031 162.971C79.8576 162.497 78.8507 162.261 77.4823 162.261H76.1139V168.341ZM76.1139 177.997H72.4347V159.201H76.9013C78.3214 159.201 79.3757 159.253 80.0642 159.356C80.7613 159.451 81.3551 159.61 81.8457 159.834C82.9128 160.333 83.7261 161.03 84.2855 161.925C84.845 162.82 85.1247 163.87 85.1247 165.075C85.1247 166.529 84.7245 167.764 83.9241 168.78C83.1237 169.787 82.035 170.428 80.658 170.703L85.357 177.997H80.9678L76.1139 169.27V177.997ZM85.8223 172.162L89.1787 172.149V172.42C89.1787 173.212 89.3853 173.849 89.7984 174.331C90.2115 174.804 90.7623 175.041 91.4508 175.041C92.1909 175.041 92.7762 174.821 93.2065 174.383C93.6368 173.935 93.8519 173.333 93.8519 172.575C93.8519 171.362 92.9827 170.493 91.2442 169.968C91.0205 169.899 90.8441 169.843 90.715 169.8C89.2519 169.344 88.1675 168.698 87.4618 167.863C86.7561 167.02 86.4032 165.957 86.4032 164.675C86.4032 162.91 86.8895 161.495 87.862 160.427C88.8431 159.36 90.1469 158.827 91.7735 158.827C93.2968 158.827 94.5103 159.304 95.414 160.26C96.3176 161.206 96.8211 162.536 96.9244 164.249H93.5938V164.094C93.5938 163.491 93.413 163.005 93.0516 162.635C92.6901 162.265 92.2168 162.08 91.6315 162.08C91.0291 162.08 90.5514 162.269 90.1986 162.648C89.8543 163.027 89.6822 163.543 89.6822 164.197C89.6822 164.472 89.7166 164.718 89.7855 164.933C89.8629 165.139 89.9791 165.329 90.134 165.501C90.4869 165.888 91.2442 166.245 92.4061 166.572C92.9225 166.71 93.3184 166.826 93.5938 166.921C94.8847 167.36 95.8357 167.988 96.4467 168.806C97.0664 169.623 97.3762 170.669 97.3762 171.943C97.3762 173.879 96.8383 175.437 95.7625 176.616C94.6868 177.786 93.2581 178.372 91.4766 178.372C89.7984 178.372 88.4429 177.804 87.4101 176.668C86.3774 175.531 85.8481 174.03 85.8223 172.162ZM99.1324 177.997V159.201H102.812V177.997H99.1324ZM114.779 159.201V162.506H111.229V177.997H107.563V162.506H104.013V159.201H114.779ZM115.993 177.997V159.201H119.672V177.997H115.993ZM132.427 177.997H122.281V159.201H132.427V162.506H125.921V166.792H132.427V170.045H125.921V174.692H132.427V177.997ZM133.835 172.162L137.191 172.149V172.42C137.191 173.212 137.398 173.849 137.811 174.331C138.224 174.804 138.775 175.041 139.464 175.041C140.204 175.041 140.789 174.821 141.219 174.383C141.65 173.935 141.865 173.333 141.865 172.575C141.865 171.362 140.995 170.493 139.257 169.968C139.033 169.899 138.857 169.843 138.728 169.8C137.265 169.344 136.18 168.698 135.475 167.863C134.769 167.02 134.416 165.957 134.416 164.675C134.416 162.91 134.902 161.495 135.875 160.427C136.856 159.36 138.16 158.827 139.786 158.827C141.31 158.827 142.523 159.304 143.427 160.26C144.33 161.206 144.834 162.536 144.937 164.249H141.607V164.094C141.607 163.491 141.426 163.005 141.064 162.635C140.703 162.265 140.23 162.08 139.644 162.08C139.042 162.08 138.564 162.269 138.211 162.648C137.867 163.027 137.695 163.543 137.695 164.197C137.695 164.472 137.729 164.718 137.798 164.933C137.876 165.139 137.992 165.329 138.147 165.501C138.5 165.888 139.257 166.245 140.419 166.572C140.935 166.71 141.331 166.826 141.607 166.921C142.897 167.36 143.848 167.988 144.46 168.806C145.079 169.623 145.389 170.669 145.389 171.943C145.389 173.879 144.851 175.437 143.775 176.616C142.7 177.786 141.271 178.372 139.489 178.372C137.811 178.372 136.456 177.804 135.423 176.668C134.39 175.531 133.861 174.03 133.835 172.162Z" fill="#FFFFF1"/>
<path d="M272.599 120.01L268.636 123.312H284.322V139.081H241.805V125.459L261.124 108.699C263.6 106.553 265.912 104.737 265.912 102.095C265.912 99.6181 263.931 98.5449 261.949 98.5449C259.39 98.5449 256.996 100.196 256.996 104.324L240.649 102.59C240.567 90.867 249.731 82.8589 263.022 82.8589C275.406 82.8589 284.075 90.2066 284.075 100.939C284.075 109.855 278.461 115.139 272.599 120.01ZM316.556 139.906C301.366 139.906 290.881 128.266 290.881 111.424C290.881 94.5821 301.366 82.8589 316.556 82.8589C331.83 82.8589 342.232 94.5821 342.232 111.424C342.232 128.266 331.83 139.906 316.556 139.906ZM316.556 123.064C320.932 123.064 323.574 118.689 323.574 111.341C323.574 104.159 320.932 99.7007 316.556 99.7007C312.098 99.7007 309.539 104.159 309.539 111.341C309.539 118.606 312.098 123.064 316.556 123.064ZM373.637 139.906C358.447 139.906 347.962 128.266 347.962 111.424C347.962 94.5821 358.447 82.8589 373.637 82.8589C388.91 82.8589 399.313 94.5821 399.313 111.424C399.313 128.266 388.91 139.906 373.637 139.906ZM373.637 123.064C378.013 123.064 380.655 118.689 380.655 111.341C380.655 104.159 378.013 99.7007 373.637 99.7007C369.179 99.7007 366.62 104.159 366.62 111.341C366.62 118.606 369.179 123.064 373.637 123.064ZM430.718 139.906C415.527 139.906 405.043 128.266 405.043 111.424C405.043 94.5821 415.527 82.8589 430.718 82.8589C445.991 82.8589 456.393 94.5821 456.393 111.424C456.393 128.266 445.991 139.906 430.718 139.906ZM430.718 123.064C435.094 123.064 437.735 118.689 437.735 111.341C437.735 104.159 435.094 99.7007 430.718 99.7007C426.26 99.7007 423.701 104.159 423.701 111.341C423.701 118.606 426.26 123.064 430.718 123.064ZM488.872 104.902H500.1V119.68H488.872V131.32H473.351V119.68H462.041V104.902H473.351V93.2612H488.872V104.902Z" fill="#FFFFF1"/>
<path d="M299.029 167.605H299.997C301.021 167.605 301.804 167.386 302.346 166.947C302.897 166.499 303.173 165.862 303.173 165.036C303.173 164.184 302.906 163.552 302.372 163.138C301.847 162.717 301.047 162.506 299.971 162.506H299.029V167.605ZM299.029 177.997H295.349V159.201H300.023C301.21 159.201 302.144 159.266 302.824 159.395C303.512 159.524 304.068 159.73 304.489 160.014C305.264 160.539 305.871 161.232 306.31 162.093C306.757 162.953 306.981 163.874 306.981 164.855C306.981 166.654 306.387 168.091 305.199 169.167C304.012 170.243 302.411 170.781 300.397 170.781H299.029V177.997ZM315.824 170.574L313.604 164.52L311.332 170.574H315.824ZM310.067 174.06L308.608 177.997H304.8L312.093 159.201H315.269L322.46 177.997H318.522L317.038 174.06H310.067ZM326.423 168.341H327.237C328.726 168.341 329.853 168.074 330.619 167.541C331.394 166.998 331.781 166.211 331.781 165.178C331.781 164.18 331.458 163.444 330.813 162.971C330.167 162.497 329.16 162.261 327.792 162.261H326.423V168.341ZM326.423 177.997H322.744V159.201H327.211C328.631 159.201 329.685 159.253 330.374 159.356C331.071 159.451 331.665 159.61 332.155 159.834C333.222 160.333 334.036 161.03 334.595 161.925C335.155 162.82 335.434 163.87 335.434 165.075C335.434 166.529 335.034 167.764 334.234 168.78C333.433 169.787 332.345 170.428 330.968 170.703L335.667 177.997H331.277L326.423 169.27V177.997ZM346.627 159.201V162.506H343.077V177.997H339.411V162.506H335.861V159.201H346.627ZM347.841 177.997V159.201H351.52V177.997H347.841ZM371.789 164.778H367.296C366.763 164.055 366.126 163.513 365.386 163.151C364.654 162.79 363.819 162.609 362.881 162.609C362.124 162.609 361.405 162.751 360.725 163.035C360.045 163.319 359.443 163.732 358.918 164.274C358.359 164.842 357.924 165.501 357.614 166.25C357.313 166.99 357.162 167.751 357.162 168.535C357.162 170.256 357.713 171.702 358.815 172.872C359.925 174.034 361.28 174.615 362.881 174.615C363.802 174.615 364.628 174.443 365.36 174.099C366.1 173.754 366.698 173.255 367.154 172.601H371.66C370.782 174.52 369.611 175.962 368.148 176.926C366.685 177.89 364.938 178.372 362.907 178.372C361.496 178.372 360.192 178.1 358.995 177.558C357.808 177.016 356.741 176.211 355.794 175.144C354.994 174.258 354.387 173.251 353.974 172.123C353.561 170.987 353.354 169.774 353.354 168.483C353.354 167.175 353.604 165.935 354.103 164.765C354.602 163.586 355.333 162.514 356.297 161.551C357.21 160.656 358.221 159.98 359.331 159.524C360.45 159.059 361.651 158.827 362.933 158.827C364.99 158.827 366.745 159.317 368.2 160.298C369.663 161.279 370.859 162.773 371.789 164.778ZM373.506 177.997V159.201H377.185V177.997H373.506ZM383.473 167.605H384.441C385.465 167.605 386.248 167.386 386.791 166.947C387.341 166.499 387.617 165.862 387.617 165.036C387.617 164.184 387.35 163.552 386.816 163.138C386.291 162.717 385.491 162.506 384.415 162.506H383.473V167.605ZM383.473 177.997H379.794V159.201H384.467C385.654 159.201 386.588 159.266 387.268 159.395C387.957 159.524 388.512 159.73 388.933 160.014C389.708 160.539 390.315 161.232 390.754 162.093C391.201 162.953 391.425 163.874 391.425 164.855C391.425 166.654 390.831 168.091 389.643 169.167C388.456 170.243 386.855 170.781 384.841 170.781H383.473V177.997ZM400.268 170.574L398.048 164.52L395.776 170.574H400.268ZM394.511 174.06L393.052 177.997H389.244L396.538 159.201H399.713L406.904 177.997H402.967L401.482 174.06H394.511ZM410.803 177.997H407.188V159.201H410.674L418.445 171.207V159.201H422.047V177.997H418.639L410.803 165.63V177.997ZM434.041 159.201V162.506H430.49V177.997H426.824V162.506H423.274V159.201H434.041ZM434.093 172.162L437.449 172.149V172.42C437.449 173.212 437.656 173.849 438.069 174.331C438.482 174.804 439.033 175.041 439.721 175.041C440.461 175.041 441.047 174.821 441.477 174.383C441.907 173.935 442.122 173.333 442.122 172.575C442.122 171.362 441.253 170.493 439.515 169.968C439.291 169.899 439.114 169.843 438.985 169.8C437.522 169.344 436.438 168.698 435.732 167.863C435.027 167.02 434.674 165.957 434.674 164.675C434.674 162.91 435.16 161.495 436.132 160.427C437.114 159.36 438.417 158.827 440.044 158.827C441.567 158.827 442.781 159.304 443.684 160.26C444.588 161.206 445.092 162.536 445.195 164.249H441.864V164.094C441.864 163.491 441.683 163.005 441.322 162.635C440.961 162.265 440.487 162.08 439.902 162.08C439.3 162.08 438.822 162.269 438.469 162.648C438.125 163.027 437.953 163.543 437.953 164.197C437.953 164.472 437.987 164.718 438.056 164.933C438.133 165.139 438.25 165.329 438.404 165.501C438.757 165.888 439.515 166.245 440.677 166.572C441.193 166.71 441.589 166.826 441.864 166.921C443.155 167.36 444.106 167.988 444.717 168.806C445.337 169.623 445.647 170.669 445.647 171.943C445.647 173.879 445.109 175.437 444.033 176.616C442.957 177.786 441.529 178.372 439.747 178.372C438.069 178.372 436.713 177.804 435.681 176.668C434.648 175.531 434.119 174.03 434.093 172.162Z" fill="#FFFFF1"/>
<path d="M622.566 120.01L618.603 123.312H634.289V139.081H591.772V125.459L611.09 108.699C613.567 106.553 615.878 104.737 615.878 102.095C615.878 99.6181 613.897 98.5449 611.916 98.5449C609.356 98.5449 606.962 100.196 606.962 104.324L590.616 102.59C590.533 90.867 599.697 82.8589 612.989 82.8589C625.373 82.8589 634.041 90.2066 634.041 100.939C634.041 109.855 628.427 115.139 622.566 120.01ZM667.761 102.343C679.402 102.343 686.832 109.773 686.832 120.34C686.832 131.816 677.833 139.989 662.973 139.989C651.415 139.989 642.169 135.2 640.022 124.138L656.699 120.257C657.937 123.725 660.331 124.881 662.89 124.881C666.11 124.881 668.504 122.569 668.504 119.349C668.504 116.13 666.275 113.818 662.808 113.818C660.496 113.818 658.185 115.139 657.277 117.285L642.664 110.433L647.287 83.7671H684.108V98.71H660.579L659.423 104.076C661.735 102.92 664.459 102.343 667.761 102.343ZM719.275 104.902H730.503V119.68H719.275V131.32H703.754V119.68H692.444V104.902H703.754V93.2612H719.275V104.902Z" fill="#FFFFF1"/>
<path d="M620.482 167.605H621.45C622.474 167.605 623.257 167.386 623.8 166.947C624.35 166.499 624.626 165.862 624.626 165.036C624.626 164.184 624.359 163.552 623.825 163.138C623.3 162.717 622.5 162.506 621.424 162.506H620.482V167.605ZM620.482 177.997H616.803V159.201H621.476C622.663 159.201 623.597 159.266 624.277 159.395C624.966 159.524 625.521 159.73 625.942 160.014C626.717 160.539 627.324 161.232 627.763 162.093C628.21 162.953 628.434 163.874 628.434 164.855C628.434 166.654 627.84 168.091 626.652 169.167C625.465 170.243 623.864 170.781 621.85 170.781H620.482V177.997ZM637.277 170.574L635.057 164.52L632.785 170.574H637.277ZM631.52 174.06L630.061 177.997H626.253L633.547 159.201H636.722L643.913 177.997H639.976L638.491 174.06H631.52ZM652.472 159.201V162.506H648.922V177.997H645.256V162.506H641.706V159.201H652.472ZM663.807 177.997H653.661V159.201H663.807V162.506H657.301V166.792H663.807V170.045H657.301V174.692H663.807V177.997ZM669.966 177.997H666.351V159.201H669.837L677.608 171.207V159.201H681.21V177.997H677.802L669.966 165.63V177.997ZM693.203 159.201V162.506H689.653V177.997H685.987V162.506H682.437V159.201H693.203ZM693.255 172.162L696.612 172.149V172.42C696.612 173.212 696.818 173.849 697.231 174.331C697.645 174.804 698.195 175.041 698.884 175.041C699.624 175.041 700.209 174.821 700.64 174.383C701.07 173.935 701.285 173.333 701.285 172.575C701.285 171.362 700.416 170.493 698.677 169.968C698.454 169.899 698.277 169.843 698.148 169.8C696.685 169.344 695.601 168.698 694.895 167.863C694.189 167.02 693.836 165.957 693.836 164.675C693.836 162.91 694.323 161.495 695.295 160.427C696.276 159.36 697.58 158.827 699.207 158.827C700.73 158.827 701.943 159.304 702.847 160.26C703.751 161.206 704.254 162.536 704.357 164.249H701.027V164.094C701.027 163.491 700.846 163.005 700.485 162.635C700.123 162.265 699.65 162.08 699.065 162.08C698.462 162.08 697.985 162.269 697.632 162.648C697.287 163.027 697.115 163.543 697.115 164.197C697.115 164.472 697.15 164.718 697.219 164.933C697.296 165.139 697.412 165.329 697.567 165.501C697.92 165.888 698.677 166.245 699.839 166.572C700.356 166.71 700.751 166.826 701.027 166.921C702.318 167.36 703.269 167.988 703.88 168.806C704.499 169.623 704.809 170.669 704.809 171.943C704.809 173.879 704.271 175.437 703.196 176.616C702.12 177.786 700.691 178.372 698.91 178.372C697.231 178.372 695.876 177.804 694.843 176.668C693.81 175.531 693.281 174.03 693.255 172.162Z" fill="#FFFFF1"/>
<path d="M861.524 109.112C867.137 111.837 869.862 116.955 869.862 122.156C869.862 132.311 860.45 139.906 845.012 139.906C829.574 139.906 820.327 132.311 820.327 122.074C820.327 116.873 822.969 111.754 828.666 109.112C825.116 106.801 823.052 103.333 823.052 98.8751C823.052 89.7112 831.885 82.8589 844.929 82.8589C858.056 82.8589 866.972 89.7112 866.972 98.9576C866.972 103.333 864.991 106.801 861.524 109.112ZM845.012 96.5635C842.37 96.5635 840.554 98.3797 840.554 100.939C840.554 103.416 842.288 105.232 845.095 105.232C847.736 105.232 849.635 103.498 849.635 100.856C849.635 98.4623 847.736 96.5635 845.012 96.5635ZM845.012 125.706C848.149 125.706 850.296 123.56 850.296 120.753C850.296 117.863 848.067 115.882 845.012 115.882C842.122 115.882 839.811 117.863 839.811 120.753C839.811 123.56 842.04 125.706 845.012 125.706ZM902.149 102.343C913.79 102.343 921.22 109.773 921.22 120.34C921.22 131.816 912.221 139.989 897.361 139.989C885.803 139.989 876.556 135.2 874.41 124.138L891.086 120.257C892.325 123.725 894.719 124.881 897.278 124.881C900.498 124.881 902.892 122.569 902.892 119.349C902.892 116.13 900.663 113.818 897.195 113.818C894.884 113.818 892.572 115.139 891.664 117.285L877.051 110.433L881.675 83.7671H918.495V98.71H894.966L893.811 104.076C896.122 102.92 898.847 102.343 902.149 102.343ZM952.59 139.906C937.399 139.906 926.914 128.266 926.914 111.424C926.914 94.5821 937.399 82.8589 952.59 82.8589C967.863 82.8589 978.265 94.5821 978.265 111.424C978.265 128.266 967.863 139.906 952.59 139.906ZM952.59 123.064C956.965 123.064 959.607 118.689 959.607 111.341C959.607 104.159 956.965 99.7007 952.59 99.7007C948.132 99.7007 945.572 104.159 945.572 111.341C945.572 118.606 948.132 123.064 952.59 123.064ZM1010.74 104.902H1021.97V119.68H1010.74V131.32H995.223V119.68H983.912V104.902H995.223V93.2612H1010.74V104.902Z" fill="#FFFFF1"/>
<path d="M869.929 167.605H870.897C871.922 167.605 872.705 167.386 873.247 166.947C873.798 166.499 874.073 165.862 874.073 165.036C874.073 164.184 873.806 163.552 873.273 163.138C872.748 162.717 871.947 162.506 870.872 162.506H869.929V167.605ZM869.929 177.997H866.25V159.201H870.923C872.111 159.201 873.045 159.266 873.725 159.395C874.413 159.524 874.968 159.73 875.39 160.014C876.165 160.539 876.771 161.232 877.21 162.093C877.658 162.953 877.881 163.874 877.881 164.855C877.881 166.654 877.288 168.091 876.1 169.167C874.912 170.243 873.312 170.781 871.298 170.781H869.929V177.997ZM883.007 168.341H883.82C885.309 168.341 886.437 168.074 887.203 167.541C887.977 166.998 888.364 166.211 888.364 165.178C888.364 164.18 888.042 163.444 887.396 162.971C886.751 162.497 885.744 162.261 884.375 162.261H883.007V168.341ZM883.007 177.997H879.328V159.201H883.795C885.215 159.201 886.269 159.253 886.957 159.356C887.654 159.451 888.248 159.61 888.739 159.834C889.806 160.333 890.619 161.03 891.179 161.925C891.738 162.82 892.018 163.87 892.018 165.075C892.018 166.529 891.618 167.764 890.817 168.78C890.017 169.787 888.928 170.428 887.551 170.703L892.25 177.997H887.861L883.007 169.27V177.997ZM896.885 168.431C896.885 169.24 897.019 169.993 897.285 170.69C897.552 171.388 897.948 172.024 898.473 172.601C899.05 173.229 899.704 173.716 900.435 174.06C901.167 174.395 901.924 174.563 902.707 174.563C904.351 174.563 905.728 173.978 906.838 172.808C907.957 171.637 908.517 170.178 908.517 168.431C908.517 166.831 907.953 165.466 906.825 164.339C905.707 163.203 904.36 162.635 902.785 162.635C901.141 162.635 899.747 163.199 898.602 164.326C897.457 165.454 896.885 166.822 896.885 168.431ZM893.025 168.56C893.025 167.528 893.163 166.555 893.438 165.643C893.714 164.722 894.123 163.861 894.665 163.061C895.594 161.71 896.76 160.668 898.163 159.937C899.566 159.197 901.098 158.827 902.759 158.827C904.007 158.827 905.207 159.068 906.361 159.55C907.523 160.032 908.56 160.724 909.472 161.628C910.41 162.566 911.124 163.62 911.615 164.791C912.105 165.961 912.351 167.192 912.351 168.483C912.351 169.826 912.118 171.086 911.654 172.265C911.197 173.444 910.522 174.49 909.627 175.402C908.723 176.358 907.669 177.094 906.464 177.61C905.268 178.118 904.015 178.372 902.707 178.372C901.305 178.372 900.014 178.122 898.835 177.623C897.655 177.124 896.61 176.384 895.698 175.402C894.82 174.473 894.153 173.432 893.697 172.278C893.249 171.116 893.025 169.877 893.025 168.56ZM922.963 171.568C922.963 172.833 922.898 173.789 922.769 174.434C922.64 175.08 922.421 175.643 922.111 176.125C921.655 176.848 921.044 177.403 920.278 177.791C919.52 178.178 918.66 178.372 917.696 178.372C916.035 178.372 914.765 177.907 913.887 176.977C913.01 176.039 912.571 174.688 912.571 172.924H916.224V172.975C916.224 173.509 916.349 173.926 916.598 174.228C916.857 174.52 917.214 174.667 917.67 174.667C918.255 174.667 918.668 174.417 918.909 173.918C919.159 173.41 919.284 172.532 919.284 171.284V159.201H922.963V171.568ZM935.679 177.997H925.532V159.201H935.679V162.506H929.173V166.792H935.679V170.045H929.173V174.692H935.679V177.997ZM955.883 164.778H951.39C950.857 164.055 950.22 163.513 949.48 163.151C948.748 162.79 947.913 162.609 946.975 162.609C946.218 162.609 945.499 162.751 944.819 163.035C944.14 163.319 943.537 163.732 943.012 164.274C942.453 164.842 942.018 165.501 941.708 166.25C941.407 166.99 941.256 167.751 941.256 168.535C941.256 170.256 941.807 171.702 942.909 172.872C944.019 174.034 945.375 174.615 946.975 174.615C947.896 174.615 948.722 174.443 949.454 174.099C950.194 173.754 950.792 173.255 951.248 172.601H955.754C954.876 174.52 953.705 175.962 952.242 176.926C950.779 177.89 949.032 178.372 947.001 178.372C945.59 178.372 944.286 178.1 943.09 177.558C941.902 177.016 940.835 176.211 939.888 175.144C939.088 174.258 938.481 173.251 938.068 172.123C937.655 170.987 937.448 169.774 937.448 168.483C937.448 167.175 937.698 165.935 938.197 164.765C938.696 163.586 939.428 162.514 940.392 161.551C941.304 160.656 942.315 159.98 943.425 159.524C944.544 159.059 945.745 158.827 947.027 158.827C949.084 158.827 950.84 159.317 952.294 160.298C953.757 161.279 954.953 162.773 955.883 164.778ZM966.934 159.201V162.506H963.384V177.997H959.717V162.506H956.167V159.201H966.934ZM966.986 172.162L970.342 172.149V172.42C970.342 173.212 970.549 173.849 970.962 174.331C971.375 174.804 971.926 175.041 972.614 175.041C973.355 175.041 973.94 174.821 974.37 174.383C974.8 173.935 975.016 173.333 975.016 172.575C975.016 171.362 974.146 170.493 972.408 169.968C972.184 169.899 972.008 169.843 971.879 169.8C970.416 169.344 969.331 168.698 968.625 167.863C967.92 167.02 967.567 165.957 967.567 164.675C967.567 162.91 968.053 161.495 969.026 160.427C970.007 159.36 971.311 158.827 972.937 158.827C974.461 158.827 975.674 159.304 976.578 160.26C977.481 161.206 977.985 162.536 978.088 164.249H974.757V164.094C974.757 163.491 974.577 163.005 974.215 162.635C973.854 162.265 973.38 162.08 972.795 162.08C972.193 162.08 971.715 162.269 971.362 162.648C971.018 163.027 970.846 163.543 970.846 164.197C970.846 164.472 970.88 164.718 970.949 164.933C971.027 165.139 971.143 165.329 971.298 165.501C971.651 165.888 972.408 166.245 973.57 166.572C974.086 166.71 974.482 166.826 974.757 166.921C976.048 167.36 976.999 167.988 977.61 168.806C978.23 169.623 978.54 170.669 978.54 171.943C978.54 173.879 978.002 175.437 976.926 176.616C975.85 177.786 974.422 178.372 972.64 178.372C970.962 178.372 969.607 177.804 968.574 176.668C967.541 175.531 967.012 174.03 966.986 172.162Z" fill="#FFFFF1"/>
<mask id="path-9-outside-1_78_901" maskUnits="userSpaceOnUse" x="410" y="0" width="206" height="45" fill="black">
<rect fill="white" x="410" width="206" height="45"/>
<path d="M412 36.9492V42.998H419.939V43.998H411V36.9492H412ZM614.999 43.998H606.059V42.998H613.999V36.9492H614.999V43.998ZM614.999 8.04883H613.999V2H606.059V1H614.999V8.04883ZM419.939 2H412V8.04883H411V1H419.939V2Z"/>
</mask>
<path d="M412 36.9492V42.998H419.939V43.998H411V36.9492H412ZM614.999 43.998H606.059V42.998H613.999V36.9492H614.999V43.998ZM614.999 8.04883H613.999V2H606.059V1H614.999V8.04883ZM419.939 2H412V8.04883H411V1H419.939V2Z" fill="#FFFFF1"/>
<path d="M412 36.9492H413V35.9492H412V36.9492ZM412 42.998H411V43.998H412V42.998ZM419.939 42.998H420.939V41.998H419.939V42.998ZM419.939 43.998V44.998H420.939V43.998H419.939ZM411 43.998H410V44.998H411V43.998ZM411 36.9492V35.9492H410V36.9492H411ZM614.999 43.998V44.998H615.999V43.998H614.999ZM606.059 43.998H605.059V44.998H606.059V43.998ZM606.059 42.998V41.998H605.059V42.998H606.059ZM613.999 42.998V43.998H614.999V42.998H613.999ZM613.999 36.9492V35.9492H612.999V36.9492H613.999ZM614.999 36.9492H615.999V35.9492H614.999V36.9492ZM614.999 8.04883V9.04883H615.999V8.04883H614.999ZM613.999 8.04883H612.999V9.04883H613.999V8.04883ZM613.999 2H614.999V1H613.999V2ZM606.059 2H605.059V3H606.059V2ZM606.059 1V0H605.059V1H606.059ZM614.999 1H615.999V0H614.999V1ZM419.939 2V3H420.939V2H419.939ZM412 2V1H411V2H412ZM412 8.04883V9.04883H413V8.04883H412ZM411 8.04883H410V9.04883H411V8.04883ZM411 1V0H410V1H411ZM419.939 1H420.939V0H419.939V1ZM412 36.9492H411V42.998H412H413V36.9492H412ZM412 42.998V43.998H419.939V42.998V41.998H412V42.998ZM419.939 42.998H418.939V43.998H419.939H420.939V42.998H419.939ZM419.939 43.998V42.998H411V43.998V44.998H419.939V43.998ZM411 43.998H412V36.9492H411H410V43.998H411ZM411 36.9492V37.9492H412V36.9492V35.9492H411V36.9492ZM614.999 43.998V42.998H606.059V43.998V44.998H614.999V43.998ZM606.059 43.998H607.059V42.998H606.059H605.059V43.998H606.059ZM606.059 42.998V43.998H613.999V42.998V41.998H606.059V42.998ZM613.999 42.998H614.999V36.9492H613.999H612.999V42.998H613.999ZM613.999 36.9492V37.9492H614.999V36.9492V35.9492H613.999V36.9492ZM614.999 36.9492H613.999V43.998H614.999H615.999V36.9492H614.999ZM614.999 8.04883V7.04883H613.999V8.04883V9.04883H614.999V8.04883ZM613.999 8.04883H614.999V2H613.999H612.999V8.04883H613.999ZM613.999 2V1H606.059V2V3H613.999V2ZM606.059 2H607.059V1H606.059H605.059V2H606.059ZM606.059 1V2H614.999V1V0H606.059V1ZM614.999 1H613.999V8.04883H614.999H615.999V1H614.999ZM419.939 2V1H412V2V3H419.939V2ZM412 2H411V8.04883H412H413V2H412ZM412 8.04883V7.04883H411V8.04883V9.04883H412V8.04883ZM411 8.04883H412V1H411H410V8.04883H411ZM411 1V2H419.939V1V0H411V1ZM419.939 1H418.939V2H419.939H420.939V1H419.939Z" fill="#FFFFF1" mask="url(#path-9-outside-1_78_901)"/>
<path d="M436.032 23.121V29H433.202V14.5408H436.032V20.4H440.679V14.5408H443.51V29H440.679V23.121H436.032ZM452.031 23.2898L450.323 18.6323L448.575 23.2898H452.031ZM447.602 25.9711L446.479 29H443.55L449.161 14.5408H451.604L457.135 29H454.106L452.964 25.9711H447.602ZM470.582 18.8309H467.126C466.715 18.2748 466.226 17.8577 465.656 17.5796C465.093 17.3016 464.451 17.1625 463.73 17.1625C463.147 17.1625 462.594 17.2718 462.071 17.4902C461.548 17.7087 461.085 18.0265 460.681 18.4436C460.25 18.8806 459.916 19.387 459.678 19.963C459.446 20.5324 459.33 21.1183 459.33 21.7208C459.33 23.0449 459.754 24.1571 460.601 25.0575C461.455 25.9513 462.498 26.3981 463.73 26.3981C464.438 26.3981 465.074 26.2657 465.636 26.0009C466.206 25.7361 466.666 25.3521 467.017 24.8489H470.482C469.807 26.3253 468.907 27.4343 467.781 28.1757C466.656 28.9172 465.312 29.288 463.749 29.288C462.664 29.288 461.661 29.0794 460.74 28.6624C459.827 28.2453 459.006 27.6262 458.278 26.8053C457.662 26.1234 457.195 25.3488 456.877 24.4815C456.56 23.6076 456.401 22.6741 456.401 21.681C456.401 20.6747 456.593 19.7214 456.977 18.821C457.361 17.914 457.923 17.0897 458.665 16.3482C459.367 15.6597 460.145 15.14 460.999 14.7891C461.859 14.4316 462.783 14.2528 463.769 14.2528C465.352 14.2528 466.702 14.6302 467.821 15.3849C468.947 16.1397 469.867 17.2883 470.582 18.8309ZM474.753 21.8201L479.123 14.5408H482.271L477.633 21.7208L482.271 29H479.123L474.753 21.8201ZM474.713 29H471.883V14.5408H474.713V29ZM489.322 23.2898L487.614 18.6323L485.866 23.2898H489.322ZM484.893 25.9711L483.771 29H480.841L486.452 14.5408H488.895L494.426 29H491.397L490.255 25.9711L484.893 25.9711ZM501.011 14.5408V17.0831H498.28V29H495.46V17.0831H492.729V14.5408H501.011ZM504.755 23.121V29H501.925V14.5408H504.755V20.4H509.403V14.5408H512.233V29H509.403V23.121H504.755ZM516.563 21.6413C516.563 22.2636 516.666 22.8429 516.871 23.3792C517.076 23.9155 517.381 24.4054 517.785 24.8489C518.228 25.3322 518.731 25.7063 519.294 25.9711C519.857 26.2293 520.44 26.3584 521.042 26.3584C522.306 26.3584 523.366 25.9082 524.22 25.0078C525.08 24.1074 525.511 22.9853 525.511 21.6413C525.511 20.4099 525.077 19.3605 524.21 18.4933C523.349 17.6193 522.313 17.1824 521.102 17.1824C519.837 17.1824 518.765 17.616 517.884 18.4833C517.003 19.3506 516.563 20.4033 516.563 21.6413ZM513.594 21.7406C513.594 20.9462 513.7 20.198 513.912 19.4963C514.124 18.7879 514.438 18.1258 514.855 17.5101C515.57 16.4707 516.467 15.6696 517.546 15.1069C518.625 14.5375 519.804 14.2528 521.082 14.2528C522.042 14.2528 522.965 14.4382 523.852 14.8089C524.746 15.1797 525.544 15.7126 526.246 16.4078C526.967 17.1294 527.517 17.9404 527.894 18.8408C528.272 19.7412 528.46 20.688 528.46 21.681C528.46 22.7138 528.282 23.6837 527.924 24.5907C527.573 25.4978 527.053 26.3021 526.365 27.0039C525.67 27.7388 524.859 28.3048 523.932 28.7021C523.012 29.0927 522.048 29.288 521.042 29.288C519.963 29.288 518.97 29.096 518.063 28.712C517.156 28.328 516.351 27.7587 515.65 27.0039C514.974 26.2889 514.461 25.4878 514.11 24.6007C513.766 23.7069 513.594 22.7536 513.594 21.7406ZM532.612 29H529.831V14.5408H532.512L538.491 23.7764V14.5408H541.261V29H538.64L532.612 19.4863V29ZM547.926 24.5113L550.508 24.5014V24.7099C550.508 25.319 550.667 25.8089 550.984 26.1797C551.302 26.5438 551.726 26.7259 552.256 26.7259C552.825 26.7259 553.275 26.557 553.606 26.2194C553.937 25.8751 554.103 25.4117 554.103 24.8291C554.103 23.8956 553.434 23.2269 552.097 22.8231C551.925 22.7701 551.789 22.7271 551.689 22.694C550.564 22.3431 549.73 21.8465 549.187 21.2044C548.644 20.5555 548.373 19.7379 548.373 18.7515C548.373 17.3943 548.747 16.3052 549.495 15.4842C550.25 14.6633 551.253 14.2528 552.504 14.2528C553.676 14.2528 554.609 14.6203 555.304 15.3551C555.999 16.0834 556.387 17.1063 556.466 18.4237H553.904V18.3046C553.904 17.8411 553.765 17.4671 553.487 17.1824C553.209 16.8977 552.845 16.7554 552.395 16.7554C551.931 16.7554 551.564 16.901 551.292 17.1923C551.027 17.4836 550.895 17.8809 550.895 18.384C550.895 18.5959 550.922 18.7846 550.974 18.9501C551.034 19.109 551.123 19.2546 551.243 19.387C551.514 19.6849 552.097 19.9597 552.99 20.2113C553.388 20.3172 553.692 20.4066 553.904 20.4794C554.897 20.8171 555.629 21.3004 556.099 21.9293C556.575 22.5582 556.814 23.3626 556.814 24.3425C556.814 25.8321 556.4 27.0304 555.572 27.9374C554.745 28.8378 553.646 29.288 552.275 29.288C550.984 29.288 549.942 28.851 549.147 27.9771C548.353 27.1032 547.946 25.9479 547.926 24.5113ZM565.345 14.5408V17.0831H562.614V29H559.793V17.0831H557.062V14.5408L565.345 14.5408ZM571.949 23.2898L570.241 18.6323L568.493 23.2898H571.949ZM567.52 25.9711L566.398 29H563.468L569.079 14.5408H571.522L577.053 29H574.025L572.883 25.9711H567.52ZM583.638 14.5408V17.0831H580.907V29H578.087V17.0831H575.356V14.5408H583.638ZM583.678 24.5113L586.26 24.5014V24.7099C586.26 25.319 586.419 25.8089 586.737 26.1797C587.055 26.5438 587.478 26.7259 588.008 26.7259C588.577 26.7259 589.027 26.557 589.358 26.2194C589.689 25.8751 589.855 25.4117 589.855 24.8291C589.855 23.8956 589.186 23.2269 587.849 22.8231C587.677 22.7701 587.541 22.7271 587.442 22.694C586.316 22.3431 585.482 21.8465 584.939 21.2044C584.396 20.5555 584.125 19.7379 584.125 18.7515C584.125 17.3943 584.499 16.3052 585.247 15.4842C586.002 14.6633 587.005 14.2528 588.256 14.2528C589.428 14.2528 590.361 14.6203 591.057 15.3551C591.752 16.0834 592.139 17.1063 592.219 18.4237H589.656V18.3046C589.656 17.8411 589.517 17.4671 589.239 17.1824C588.961 16.8977 588.597 16.7554 588.147 16.7554C587.683 16.7554 587.316 16.901 587.045 17.1923C586.78 17.4836 586.647 17.8809 586.647 18.384C586.647 18.5959 586.674 18.7846 586.727 18.9501C586.786 19.109 586.876 19.2546 586.995 19.387C587.266 19.6849 587.849 19.9597 588.743 20.2113C589.14 20.3172 589.445 20.4066 589.656 20.4794C590.649 20.8171 591.381 21.3004 591.851 21.9293C592.328 22.5582 592.566 23.3626 592.566 24.3425C592.566 25.8321 592.152 27.0304 591.325 27.9374C590.497 28.8378 589.398 29.288 588.028 29.288C586.737 29.288 585.694 28.851 584.9 27.9771C584.105 27.1032 583.698 25.9479 583.678 24.5113Z" fill="#FFFFF1"/>
</svg>
