<svg width="653" height="34" viewBox="0 0 653 34" fill="none" xmlns="http://www.w3.org/2000/svg">
<path d="M19.0003 16.1677L27.3244 2.23269H37.4882V33H27.3244V19.8928L22.4955 27.5732H15.643L10.768 19.8469V33H0.604249V2.23269H10.814L19.0003 16.1677ZM56.084 33.5059C47.8058 33.5059 41.8271 28.263 41.8271 20.3527V2.23269H52.4048V19.5249C52.4048 21.5025 53.5546 23.2961 56.084 23.2961C58.5675 23.2961 59.7632 21.4565 59.7632 19.5249V2.23269H70.3409V20.3527C70.3409 28.263 64.3622 33.5059 56.084 33.5059ZM80.2902 33.5059C77.7607 33.5059 74.6794 33.046 72.5179 32.3561V23.0662C74.5874 23.4801 76.0131 23.71 78.3126 23.71C82.2218 23.71 82.2218 21.4565 82.2218 19.7089V2.23269H92.8455V21.6865C92.8455 29.6887 87.8326 33.5059 80.2902 33.5059ZM104.108 14.604H96.1514L98.9108 0.715018H110.04L104.108 14.604ZM121.443 33.5059C116.798 33.5059 112.061 32.1722 109.026 30.0106L112.383 23.0202C114.269 24.4918 118.546 26.2395 121.581 26.2395C122.639 26.2395 123.697 26.1015 123.697 25.3197C123.697 24.3999 122.179 24.4459 119.466 23.894C113.349 22.6522 110.636 20.5367 110.636 16.2596C110.636 11.2467 114.545 8.11941 121.765 8.11941C124.295 8.11941 128.48 8.48733 132.619 10.189L130.135 17.3634C127.376 15.9837 123.789 15.0639 121.673 15.0639C120.799 15.0639 119.972 15.2019 119.972 15.7997C119.972 16.7195 121.581 16.7655 124.525 17.4094C130.089 18.6051 133.401 19.9848 133.401 25.0897C133.401 29.9647 129.216 33.5059 121.443 33.5059ZM169.43 33H146.389V2.23269H157.013V23.848H169.43V33ZM202.561 33H191.432L190.65 29.3668H182.05L181.176 33H169.909L179.796 2.23269H192.904L202.561 33ZM184.119 20.6287H188.718L186.327 10.8328L184.119 20.6287ZM233.333 33H220.824L217.007 25.1357H215.351V33H204.82V2.23269H221.468C227.815 2.23269 232.506 6.96966 232.506 13.4083C232.506 17.5474 230.712 20.9966 227.815 22.9282L233.333 33ZM219.214 11.2007H215.351V16.7195H219.26C220.778 16.7195 221.882 15.5238 221.882 13.9601C221.882 12.3505 220.732 11.2007 219.214 11.2007ZM265.095 6.7857L257.185 13.5922C255.713 11.8906 253.735 11.2927 251.896 11.2927C247.849 11.2927 245.641 14.1901 245.641 17.5933C245.641 21.2266 248.171 23.986 251.85 23.986C254.609 23.986 256.587 22.5603 256.587 21.5025H251.344V14.2361H267.532V17.9613C267.532 27.7571 260.68 33.5519 251.712 33.5519C241.962 33.5519 235.063 27.1593 235.063 17.5933C235.063 8.25738 241.962 1.68081 251.85 1.68081C257.415 1.68081 261.508 3.1065 265.095 6.7857ZM281.185 21.5945V24.1699H294.844V33H270.975V2.23269H294.338V11.0628H281.185V13.5922H293.97V21.5945H281.185ZM311.832 33.5059C306.129 33.5059 300.794 31.5283 297.437 28.9069L301.576 20.8126C304.243 22.8362 308.198 24.6298 312.797 24.6298C314.407 24.6298 315.373 24.2619 315.373 23.4341C315.373 22.1923 313.533 22.1004 311.142 21.6865C306.175 20.8586 298.954 19.5709 298.954 11.9366C298.954 4.99209 304.795 1.7268 312.935 1.7268C319.88 1.7268 324.019 3.93432 325.812 5.13006L321.627 12.9943C319.558 11.7066 315.741 10.2809 312.107 10.2809C310.452 10.2809 309.67 10.6489 309.67 11.3847C309.67 12.3965 310.912 12.4885 312.797 12.8564C317.58 13.7762 326.226 14.742 326.226 22.7902C326.226 29.3668 321.167 33.5059 311.832 33.5059ZM336.213 33V11.2007H327.751V2.23269H355.299V11.2007H346.837V33H336.213ZM385.218 13.6842V2.23269H395.934V33H385.218V23.4341H377.354V33H366.638V2.23269H377.354V13.6842H385.218ZM430.715 33H419.585L418.804 29.3668H410.203L409.33 33H398.062L407.95 2.23269H421.057L430.715 33ZM412.273 20.6287H416.872L414.481 10.8328L412.273 20.6287ZM446.758 33.5519C437.33 33.5519 430.477 26.8373 430.477 17.6393C430.477 8.48733 437.284 1.68081 446.804 1.68081C453.426 1.68081 458.991 4.99209 461.29 10.143L452.184 14.8339C451.173 12.6724 449.057 11.3847 446.62 11.3847C443.124 11.3847 440.641 13.9601 440.641 17.6393C440.641 21.2725 443.17 23.894 446.666 23.894C449.241 23.894 451.449 22.4223 452.322 20.1688L461.612 24.4459C459.451 29.9647 453.656 33.5519 446.758 33.5519ZM481.758 2.23269H494.084L484.058 18.2372L493.992 33H481.069L474.676 22.5603V33H464.052V2.23269H474.676V14.0981L481.758 2.23269ZM526.333 33H515.203L514.421 29.3668H505.821L504.947 33H493.68L503.568 2.23269H516.675L526.333 33ZM507.891 20.6287H512.49L510.098 10.8328L507.891 20.6287ZM531.761 33V11.2007H523.299V2.23269H550.847V11.2007H542.384V33H531.761ZM572.412 13.6842V2.23269H583.127V33H572.412V23.4341H564.547V33H553.832V2.23269H564.547V13.6842H572.412ZM603.008 33.5519C593.534 33.5519 586.681 26.8373 586.681 17.6393C586.681 8.39535 593.534 1.68081 603.008 1.68081C612.482 1.68081 619.426 8.44134 619.426 17.6393C619.426 26.7913 612.482 33.5519 603.008 33.5519ZM603.008 23.894C606.503 23.894 609.216 21.1346 609.216 17.6393C609.216 14.0981 606.503 11.3847 603.008 11.3847C599.467 11.3847 596.845 14.0981 596.845 17.6393C596.845 21.1346 599.467 23.894 603.008 23.894ZM642.408 16.8115V2.23269H652.388V33H642.684L632.796 18.6051V33H622.817V2.23269H632.705L642.408 16.8115Z" fill="#FFFFF1"/>
</svg>
