<svg width="128" height="31" viewBox="0 0 128 31" fill="none" xmlns="http://www.w3.org/2000/svg">
<path d="M26.0319 15.0057H26.7767C27.5645 15.0057 28.167 14.8369 28.5841 14.4993C29.0078 14.155 29.2197 13.6651 29.2197 13.0295C29.2197 12.3741 29.0144 11.8875 28.604 11.5697C28.2001 11.2453 27.5844 11.0831 26.7568 11.0831H26.0319V15.0057ZM26.0319 23H23.2016V8.54081H26.7966C27.7102 8.54081 28.4285 8.59047 28.9515 8.68977C29.4812 8.78908 29.9082 8.94797 30.2326 9.16645C30.8284 9.5703 31.2952 10.1033 31.6328 10.7653C31.9771 11.4274 32.1492 12.1357 32.1492 12.8905C32.1492 14.2742 31.6924 15.3798 30.7788 16.2074C29.8652 17.0349 28.6337 17.4487 27.0845 17.4487H26.0319V23ZM36.0921 15.5718H36.7178C37.8631 15.5718 38.7304 15.3666 39.3196 14.9561C39.9155 14.539 40.2134 13.9332 40.2134 13.1388C40.2134 12.3708 39.9651 11.8047 39.4686 11.4406C38.9721 11.0765 38.1975 10.8944 37.1448 10.8944H36.0921V15.5718ZM36.0921 23H33.2619V8.54081H36.6979C37.7903 8.54081 38.6013 8.58054 39.131 8.65998C39.6672 8.73281 40.124 8.85529 40.5014 9.02742C41.3223 9.41141 41.948 9.94767 42.3783 10.6362C42.8087 11.3247 43.0238 12.1324 43.0238 13.0593C43.0238 14.1782 42.716 15.1282 42.1003 15.9094C41.4845 16.684 40.6471 17.1773 39.5878 17.3891L43.2026 23H39.8261L36.0921 16.2868V23ZM52.24 23H44.4344V8.54081H52.24V11.0831H47.2349V14.3801H52.24V16.8827H47.2349V20.4577H52.24V23ZM53.3228 18.5113L55.9048 18.5014V18.7099C55.9048 19.319 56.0637 19.8089 56.3815 20.1797C56.6993 20.5438 57.123 20.7259 57.6526 20.7259C58.222 20.7259 58.6722 20.557 59.0032 20.2194C59.3342 19.8751 59.4997 19.4117 59.4997 18.8291C59.4997 17.8956 58.8311 17.2269 57.4937 16.8231C57.3216 16.7701 57.1859 16.7271 57.0866 16.694C55.9611 16.3431 55.1269 15.8465 54.584 15.2044C54.0411 14.5555 53.7697 13.7379 53.7697 12.7515C53.7697 11.3943 54.1438 10.3052 54.8919 9.48423C55.6466 8.66329 56.6496 8.25282 57.9009 8.25282C59.0727 8.25282 60.0062 8.62026 60.7014 9.35513C61.3965 10.0834 61.7838 11.1063 61.8633 12.4237H59.3011V12.3046C59.3011 11.8411 59.1621 11.4671 58.884 11.1824C58.606 10.8977 58.2418 10.7554 57.7917 10.7554C57.3282 10.7554 56.9608 10.901 56.6893 11.1923C56.4245 11.4836 56.2921 11.8809 56.2921 12.384C56.2921 12.5959 56.3186 12.7846 56.3716 12.9501C56.4311 13.109 56.5205 13.2546 56.6397 13.387C56.9111 13.6849 57.4937 13.9597 58.3875 14.2113C58.7847 14.3172 59.0893 14.4066 59.3011 14.4794C60.2942 14.8171 61.0258 15.3004 61.4958 15.9293C61.9725 16.5582 62.2108 17.3626 62.2108 18.3425C62.2108 19.8321 61.7971 21.0304 60.9695 21.9374C60.1419 22.8378 59.0429 23.288 57.6725 23.288C56.3815 23.288 55.3388 22.851 54.5443 21.9771C53.7498 21.1032 53.3427 19.9479 53.3228 18.5113ZM71.3475 23H63.542V8.54081H71.3475V11.0831L66.3424 11.0831V14.3801H71.3475V16.8827H66.3424V20.4577H71.3475V23ZM76.0849 23H73.3043V8.54081H75.9856L81.9639 17.7764V8.54081H84.7346V23H82.1129L76.0849 13.4863V23ZM93.9607 8.54081V11.0831H91.2297V23H88.4094V11.0831H85.6784V8.54081H93.9607ZM94.0008 18.5113L96.5828 18.5014V18.7099C96.5828 19.319 96.7417 19.8089 97.0595 20.1797C97.3773 20.5438 97.801 20.7259 98.3306 20.7259C98.9 20.7259 99.3502 20.557 99.6812 20.2194C100.012 19.8751 100.178 19.4117 100.178 18.8291C100.178 17.8956 99.5091 17.2269 98.1717 16.8231C97.9996 16.7701 97.8639 16.7271 97.7646 16.694C96.6391 16.3431 95.8049 15.8465 95.262 15.2044C94.7191 14.5555 94.4477 13.7379 94.4477 12.7515C94.4477 11.3943 94.8217 10.3052 95.5699 9.48423C96.3246 8.66329 97.3276 8.25282 98.5789 8.25282C99.7507 8.25282 100.684 8.62026 101.379 9.35513C102.075 10.0834 102.462 11.1063 102.541 12.4237L99.9791 12.4237V12.3046C99.9791 11.8411 99.8401 11.4671 99.562 11.1824C99.284 10.8977 98.9198 10.7554 98.4696 10.7554C98.0062 10.7554 97.6388 10.901 97.3673 11.1923C97.1025 11.4836 96.9701 11.8809 96.9701 12.384C96.9701 12.5959 96.9966 12.7846 97.0495 12.9501C97.1091 13.109 97.1985 13.2546 97.3177 13.387C97.5891 13.6849 98.1717 13.9597 99.0655 14.2113C99.4627 14.3172 99.7673 14.4066 99.9791 14.4794C100.972 14.8171 101.704 15.3004 102.174 15.9293C102.65 16.5582 102.889 17.3626 102.889 18.3425C102.889 19.8321 102.475 21.0304 101.647 21.9374C100.82 22.8378 99.7209 23.288 98.3505 23.288C97.0595 23.288 96.0167 22.851 95.2223 21.9771C94.4278 21.1032 94.0207 19.9479 94.0008 18.5113Z" fill="#FFFFF1"/>
<mask id="path-2-outside-1_70_228" maskUnits="userSpaceOnUse" x="0" y="0" width="128" height="32" fill="black">
<rect fill="white" width="128" height="32"/>
<path d="M2 25.2461V29.001H6.50781V30.001H1V25.2461H2ZM126.672 30.001H121.164V29.001H125.672V25.2461H126.672V30.001ZM126.672 5.75391H125.672V2H121.164V1H126.672V5.75391ZM6.50781 2H2V5.75391H1V1H6.50781V2Z"/>
</mask>
<path d="M2 25.2461V29.001H6.50781V30.001H1V25.2461H2ZM126.672 30.001H121.164V29.001H125.672V25.2461H126.672V30.001ZM126.672 5.75391H125.672V2H121.164V1H126.672V5.75391ZM6.50781 2H2V5.75391H1V1H6.50781V2Z" fill="#FFFFF1"/>
<path d="M2 25.2461H3V24.2461H2V25.2461ZM2 29.001H1V30.001H2V29.001ZM6.50781 29.001H7.50781V28.001H6.50781V29.001ZM6.50781 30.001V31.001H7.50781V30.001H6.50781ZM1 30.001H0V31.001H1V30.001ZM1 25.2461V24.2461H0V25.2461H1ZM126.672 30.001V31.001H127.672V30.001H126.672ZM121.164 30.001H120.164V31.001H121.164V30.001ZM121.164 29.001V28.001H120.164V29.001H121.164ZM125.672 29.001V30.001H126.672V29.001H125.672ZM125.672 25.2461V24.2461H124.672V25.2461H125.672ZM126.672 25.2461H127.672V24.2461H126.672V25.2461ZM126.672 5.75391V6.75391H127.672V5.75391H126.672ZM125.672 5.75391H124.672V6.75391H125.672V5.75391ZM125.672 2H126.672V1H125.672V2ZM121.164 2H120.164V3H121.164V2ZM121.164 1V0H120.164V1H121.164ZM126.672 1H127.672V0H126.672V1ZM6.50781 2V3H7.50781V2H6.50781ZM2 2V1H1V2H2ZM2 5.75391V6.75391H3V5.75391H2ZM1 5.75391H0V6.75391H1V5.75391ZM1 1V0H0V1H1ZM6.50781 1H7.50781V0H6.50781V1ZM2 25.2461H1V29.001H2H3V25.2461H2ZM2 29.001V30.001H6.50781V29.001V28.001H2V29.001ZM6.50781 29.001H5.50781V30.001H6.50781H7.50781V29.001H6.50781ZM6.50781 30.001V29.001H1V30.001V31.001H6.50781V30.001ZM1 30.001H2V25.2461H1H0V30.001H1ZM1 25.2461V26.2461H2V25.2461V24.2461H1V25.2461ZM126.672 30.001V29.001H121.164V30.001V31.001H126.672V30.001ZM121.164 30.001H122.164V29.001H121.164H120.164V30.001H121.164ZM121.164 29.001V30.001H125.672V29.001V28.001H121.164V29.001ZM125.672 29.001H126.672V25.2461H125.672H124.672V29.001H125.672ZM125.672 25.2461V26.2461H126.672V25.2461V24.2461H125.672V25.2461ZM126.672 25.2461H125.672V30.001H126.672H127.672V25.2461H126.672ZM126.672 5.75391V4.75391H125.672V5.75391V6.75391H126.672V5.75391ZM125.672 5.75391H126.672V2H125.672H124.672V5.75391H125.672ZM125.672 2V1H121.164V2V3H125.672V2ZM121.164 2H122.164V1H121.164H120.164V2H121.164ZM121.164 1V2H126.672V1V0H121.164V1ZM126.672 1H125.672V5.75391H126.672H127.672V1H126.672ZM6.50781 2V1H2V2V3H6.50781V2ZM2 2H1V5.75391H2H3V2H2ZM2 5.75391V4.75391H1V5.75391V6.75391H2V5.75391ZM1 5.75391H2V1H1H0V5.75391H1ZM1 1V2H6.50781V1V0H1V1ZM6.50781 1H5.50781V2H6.50781H7.50781V1H6.50781Z" fill="#FFFFF1" mask="url(#path-2-outside-1_70_228)"/>
</svg>
