<svg width="26" height="26" viewBox="0 0 26 26" fill="none" xmlns="http://www.w3.org/2000/svg">
<g clip-path="url(#clip0_1055_677)">
<path d="M20.949 17.3458C21.2979 17.0144 21.5757 16.6155 21.7657 16.1733C21.9555 15.7311 22.0536 15.2549 22.0536 14.7736C22.0536 14.2924 21.9555 13.8162 21.7657 13.374C21.5757 12.9318 21.2979 12.5329 20.949 12.2015C20.2347 11.5235 19.2874 11.1456 18.3025 11.1456C17.3177 11.1456 16.3704 11.5235 15.6561 12.2015L13.0004 14.8572L10.3447 12.2015C9.63035 11.5235 8.68307 11.1456 7.69825 11.1456C6.71341 11.1456 5.76613 11.5235 5.05182 12.2015C4.70284 12.5329 4.42498 12.9318 4.23509 13.374C4.04519 13.8162 3.94727 14.2924 3.94727 14.7736C3.94727 15.2549 4.04519 15.7311 4.23509 16.1733C4.42498 16.6155 4.70284 17.0144 5.05182 17.3458L13.0004 25.0714L20.949 17.3458Z" stroke="#1F2333" stroke-width="2.42857" stroke-linecap="round" stroke-linejoin="round"/>
<path d="M13.0004 8.35716C15.0518 8.35716 16.7147 6.69422 16.7147 4.64287C16.7147 2.59153 15.0518 0.928589 13.0004 0.928589C10.9491 0.928589 9.28613 2.59153 9.28613 4.64287C9.28613 6.69422 10.9491 8.35716 13.0004 8.35716Z" stroke="#1F2333" stroke-width="2.42857" stroke-linecap="round" stroke-linejoin="round"/>
</g>
<defs>
<clipPath id="clip0_1055_677">
<rect width="26" height="26" fill="white"/>
</clipPath>
</defs>
</svg>
