<svg width="21" height="21" viewBox="0 0 21 21" fill="none" xmlns="http://www.w3.org/2000/svg">
<path d="M13.5902 7.02075C14.9181 7.02075 16.1916 7.54826 17.1306 8.48724C18.0696 9.42622 18.5971 10.6997 18.5971 12.0277V17.869H15.2591V12.0277C15.2591 11.585 15.0833 11.1605 14.7703 10.8475C14.4573 10.5345 14.0328 10.3587 13.5902 10.3587C13.1475 10.3587 12.723 10.5345 12.41 10.8475C12.097 11.1605 11.9212 11.585 11.9212 12.0277V17.869H8.58325V12.0277C8.58325 10.6997 9.11076 9.42622 10.0497 8.48724C10.9887 7.54826 12.2622 7.02075 13.5902 7.02075Z" fill="#FEFDE0" stroke="#FEFDE0" stroke-width="0.690608" stroke-linecap="round" stroke-linejoin="round"/>
<path d="M5.24516 7.85522H1.90723V17.869H5.24516V7.85522Z" fill="#FEFDE0" stroke="#FEFDE0" stroke-width="0.690608" stroke-linecap="round" stroke-linejoin="round"/>
<path d="M3.5762 5.35185C4.49794 5.35185 5.24516 4.60463 5.24516 3.68288C5.24516 2.76114 4.49794 2.01392 3.5762 2.01392C2.65445 2.01392 1.90723 2.76114 1.90723 3.68288C1.90723 4.60463 2.65445 5.35185 3.5762 5.35185Z" fill="#FEFDE0" stroke="#FEFDE0" stroke-width="0.690608" stroke-linecap="round" stroke-linejoin="round"/>
</svg>
