<svg width="230" height="227" viewBox="0 0 230 227" fill="none" xmlns="http://www.w3.org/2000/svg">
<mask id="path-1-outside-1_78_78" maskUnits="userSpaceOnUse" x="0.144043" y="-0.00195312" width="230" height="227" fill="black">
<rect fill="white" x="0.144043" y="-0.00195312" width="230" height="227"/>
<path d="M3.70068 213.093V223.444H12.0122V225H2.14404V213.093H3.70068ZM227.856 225H217.987V223.444H226.299V213.093H227.856V225ZM227.856 12.6738H226.299V3.55469H217.987V1.99805H227.856V12.6738ZM12.0122 3.55469H3.70068V12.6738H2.14404V1.99805H12.0122V3.55469Z"/>
</mask>
<path d="M3.70068 213.093V223.444H12.0122V225H2.14404V213.093H3.70068ZM227.856 225H217.987V223.444H226.299V213.093H227.856V225ZM227.856 12.6738H226.299V3.55469H217.987V1.99805H227.856V12.6738ZM12.0122 3.55469H3.70068V12.6738H2.14404V1.99805H12.0122V3.55469Z" fill="#FEFDE0"/>
<path d="M3.70068 213.093H5.25694V211.537H3.70068V213.093ZM3.70068 223.444H2.14442V225.001H3.70068V223.444ZM12.0122 223.444H13.5685V221.888H12.0122V223.444ZM12.0122 225V226.556H13.5685V225H12.0122ZM2.14404 225H0.587784V226.556H2.14404V225ZM2.14404 213.093V211.537H0.587784V213.093H2.14404ZM227.856 225V226.556H229.412V225H227.856ZM217.987 225H216.431V226.556H217.987V225ZM217.987 223.444V221.888H216.431V223.444H217.987ZM226.299 223.444V225.001H227.856V223.444H226.299ZM226.299 213.093V211.537H224.743V213.093H226.299ZM227.856 213.093H229.412V211.537H227.856V213.093ZM227.856 12.6738V14.2301H229.412V12.6738H227.856ZM226.299 12.6738H224.743V14.2301H226.299V12.6738ZM226.299 3.55469H227.856V1.99843H226.299V3.55469ZM217.987 3.55469H216.431V5.11095H217.987V3.55469ZM217.987 1.99805V0.441788H216.431V1.99805H217.987ZM227.856 1.99805H229.412V0.441788H227.856V1.99805ZM12.0122 3.55469V5.11095H13.5685V3.55469H12.0122ZM3.70068 3.55469V1.99843H2.14442V3.55469H3.70068ZM3.70068 12.6738V14.2301H5.25694V12.6738H3.70068ZM2.14404 12.6738H0.587784V14.2301H2.14404V12.6738ZM2.14404 1.99805V0.441788H0.587784V1.99805H2.14404ZM12.0122 1.99805H13.5685V0.441788H12.0122V1.99805ZM3.70068 213.093H2.14442V223.444H3.70068H5.25694V213.093H3.70068ZM3.70068 223.444V225.001H12.0122V223.444V221.888H3.70068V223.444ZM12.0122 223.444H10.4559V225H12.0122H13.5685V223.444H12.0122ZM12.0122 225V223.444H2.14404V225V226.556H12.0122V225ZM2.14404 225H3.7003V213.093H2.14404H0.587784V225H2.14404ZM2.14404 213.093V214.649H3.70068V213.093V211.537H2.14404V213.093ZM227.856 225V223.444H217.987V225V226.556H227.856V225ZM217.987 225H219.543V223.444H217.987H216.431V225H217.987ZM217.987 223.444V225.001H226.299V223.444V221.888H217.987V223.444ZM226.299 223.444H227.856V213.093H226.299H224.743V223.444H226.299ZM226.299 213.093V214.649H227.856V213.093V211.537H226.299V213.093ZM227.856 213.093H226.3V225H227.856H229.412V213.093H227.856ZM227.856 12.6738V11.1176H226.299V12.6738V14.2301H227.856V12.6738ZM226.299 12.6738H227.856V3.55469H226.299H224.743V12.6738H226.299ZM226.299 3.55469V1.99843H217.987V3.55469V5.11095H226.299V3.55469ZM217.987 3.55469H219.543V1.99805H217.987H216.431V3.55469H217.987ZM217.987 1.99805V3.55431H227.856V1.99805V0.441788H217.987V1.99805ZM227.856 1.99805H226.3V12.6738H227.856H229.412V1.99805H227.856ZM12.0122 3.55469V1.99843H3.70068V3.55469V5.11095H12.0122V3.55469ZM3.70068 3.55469H2.14442V12.6738H3.70068H5.25694V3.55469H3.70068ZM3.70068 12.6738V11.1176H2.14404V12.6738V14.2301H3.70068V12.6738ZM2.14404 12.6738H3.7003V1.99805H2.14404H0.587784V12.6738H2.14404ZM2.14404 1.99805V3.55431H12.0122V1.99805V0.441788H2.14404V1.99805ZM12.0122 1.99805H10.4559V3.55469H12.0122H13.5685V1.99805H12.0122Z" fill="#FEFDE0" mask="url(#path-1-outside-1_78_78)"/>
</svg>
